<?xml version="1.0" encoding="UTF-8"?>
<svg id="Layer_1" data-name="Layer 1" xmlns="http://www.w3.org/2000/svg" viewBox="0 0 150 90">
  <defs>
    <style>
      .cls-1 {
        fill: #f2633e;
      }
    </style>
  </defs>
  <path class="cls-1" d="M118.31,45.33c0,23.92-19.39,43.3-43.31,43.3s-43.31-19.39-43.31-43.3S51.08,2.03,75,2.03s43.31,19.39,43.31,43.3ZM117.17,47.03c0-21.87-17.73-39.59-39.59-39.59s-39.59,17.73-39.59,39.59,17.73,39.59,39.59,39.59,39.59-17.73,39.59-39.59Z"/>
  <g>
    <path class="cls-1" d="M92.73,41.52l3.81,7.96c-.21-2.64-.33-5.3-.26-7.96h3.11v12.45h-2.85l-4.07-7.96v7.96h-2.94v-12.45h3.2Z"/>
    <path class="cls-1" d="M58.7,41.39c8.33-1.13,8.75,12.67.98,12.76-7.35.08-7.52-11.87-.98-12.76ZM59.54,43.83c-2.63.08-2.58,4.78-1.88,6.46.76,1.84,3.22,1.78,3.92-.13.64-1.75.69-6.41-2.04-6.34Z"/>
    <path class="cls-1" d="M81.19,41.39c9-1.22,8.74,14.56-.52,12.54-5.75-1.26-5.51-11.72.52-12.54ZM82.05,43.81c-2.33.13-2.38,3.33-2.2,5.06.16,1.64.85,2.89,2.68,2.69,2.69-.29,2.8-7.93-.48-7.75Z"/>
    <path class="cls-1" d="M71.8,41.52c.31.04,1.31.31,1.64.44,3.05,1.12,2.69,5.52-.35,6.4l2.95,5.62h-3.46l-1.64-3.46-.78-1.21v4.67h-3.11v-12.45c1.52.12,3.27-.17,4.76,0ZM70.16,46.88c3,.36,3.15-3.84,0-3.29v3.29Z"/>
    <path class="cls-1" d="M100.43,53.98l3.89-12.47,3.19.03,3.48,12.44h-3.29c-.25-.5-.26-1.8-.5-2.15-.17-.25-2.61-.03-3.13-.09-.02.37-.3,2.24-.61,2.24h-3.03ZM106.66,49.65l-1.04-5.01-.87,5.01h1.9Z"/>
    <path class="cls-1" d="M52.68,53.8c-4.4,1.12-8.86-1.44-8.66-6.32.16-3.95,3.5-6.49,7.36-6.13,2.02.19,1.13,1.16,1.3,2.76-6.89-2.21-6.91,9.28,0,7.09v2.59Z"/>
  </g>
</svg>