<?xml version="1.0" encoding="UTF-8"?>
<svg id="Layer_2" data-name="Layer 2" xmlns="http://www.w3.org/2000/svg" viewBox="0 0 376.23 80">
  <defs>
    <style>
      .cls-1 {
        fill: #0091ba;
      }

      .cls-2 {
        fill: #048fb8;
      }

      .cls-3 {
        fill: #0791b6;
      }

      .cls-4 {
        fill: #184b80;
      }
    </style>
  </defs>
  <g id="Layer_1-2" data-name="Layer 1">
    <g>
      <path class="cls-4" d="M69.81,31.67c-.58,1.07-1.11,2.09-1.69,3.09-1.65,2.83-3.17,5.73-4.76,8.6-.1.18-.2.24-.4.24-.75-.01-1.5-.01-2.24,0-.25,0-.3-.06-.33-.31-.17-1.83-.37-3.65-.55-5.48-.17-1.78-.33-3.56-.49-5.34-.03-.28-.08-.56-.14-.98-.23.98-.43,1.84-.62,2.7-.46,2.07-.92,4.14-1.38,6.2-.21.94-.42,1.88-.62,2.83-.05.25-.12.39-.42.38-.71-.02-1.43-.01-2.15,0-.23,0-.33,0-.27-.31.7-3.23,1.38-6.46,2.07-9.69.31-1.45.64-2.89.94-4.35.05-.22.13-.24.31-.24,1.43,0,2.86.01,4.29,0,.32,0,.32.2.35.38.08.77.14,1.54.22,2.31.15,1.56.3,3.12.44,4.68.08.84.15,1.67.22,2.51.02.19-.01.38.14.57.29-.54.57-1.06.86-1.58,1.57-2.84,3.15-5.67,4.71-8.51.15-.27.31-.37.63-.37,1.48.02,2.95,0,4.46,0-.38,1.76-.74,3.48-1.11,5.2-.62,2.9-1.24,5.79-1.86,8.69-.15.69-.13.69-.87.69-.7,0-1.4,0-2.1,0-.24,0-.3-.06-.24-.3.87-3.73,1.73-7.45,2.6-11.18.03-.13.05-.24,0-.45"/>
      <path class="cls-4" d="M218.3,34.65c1-1.59,2.47-2.16,4.19-1.99,1.79.17,2.86,1.8,2.61,3.41-.37,2.42-1.06,4.77-1.51,7.17-.04.21-.12.38-.43.37-.7-.03-1.4-.04-2.1,0-.35.02-.37-.15-.31-.39.39-1.8.8-3.61,1.19-5.41.11-.51.2-1.02.24-1.54.08-1.15-.84-1.66-1.9-1.39-.83.21-1.31.84-1.63,1.58-.55,1.31-.74,2.72-1.05,4.1-.21.92-.39,1.84-.59,2.77-.04.19-.13.29-.35.28-.73-.02-1.46-.01-2.19,0-.25,0-.33-.05-.27-.32.47-2.13.92-4.26,1.36-6.4.09-.41.12-.86-.02-1.27-.23-.67-1.07-1-1.83-.73-.91.33-1.42,1.04-1.74,1.92-.44,1.24-.64,2.53-.94,3.8-.21.91-.39,1.83-.57,2.74-.04.21-.15.25-.33.25-.76,0-1.53,0-2.29,0-.21,0-.27-.05-.22-.28.66-3.11,1.32-6.22,1.97-9.33.08-.36,0-.85.26-1.06.27-.22.73-.05,1.11-.07.35-.01.7.02,1.05,0,.37-.03.42.17.34.43-.1.3-.04.63-.17.95.89-1,1.93-1.57,3.28-1.6,1.15-.03,2.53.57,2.87,2.02"/>
      <path class="cls-4" d="M133.99,43.59c.71-3.46,1.4-6.87,2.1-10.28.06-.29.15-.5.54-.47.6.05,1.21.03,1.81,0,.3-.01.36.12.31.36-.06.33-.12.67-.21,1.13.92-1.12,1.97-1.71,3.32-1.72,1.14-.01,2.44.49,2.86,2.02.67-1.2,1.74-1.74,3.01-1.97,2.4-.45,4.14,1.46,3.76,3.59-.42,2.34-1.04,4.63-1.48,6.96-.04.2-.08.38-.38.37-.73-.02-1.46-.02-2.19,0-.28,0-.32-.11-.27-.34.43-1.98.88-3.95,1.29-5.93.07-.35.12-.71.14-1.07.08-1.09-.81-1.67-1.92-1.37-.75.2-1.22.76-1.54,1.43-.57,1.21-.74,2.53-1.04,3.81-.24,1.05-.46,2.12-.67,3.18-.05.23-.16.3-.39.3-.73-.01-1.46-.01-2.2,0-.23,0-.31-.05-.25-.3.42-1.92.83-3.84,1.25-5.76.09-.4.12-.81.18-1.22.15-1.05-.74-1.81-1.93-1.42-.83.27-1.31.91-1.63,1.69-.53,1.31-.71,2.71-1.04,4.07-.21.9-.39,1.8-.57,2.7-.03.15-.07.23-.24.23-.87,0-1.74,0-2.62,0"/>
      <path class="cls-4" d="M117.86,37.15c-.07,1.39-.35,2.7-1.47,3.67-.95.83-2.48.78-3.06-.11-.43-.67-.5-1.43-.42-2.19.08-.78.25-1.57.67-2.24.52-.83,1.19-1.44,2.29-1.48,1.07-.04,2.07,1.09,1.99,2.02,0,.11,0,.22,0,.33M121.53,32.86h-1.29q-1.12,0-1.37,1.05c-.03.13-.06.27-.1.42-.05,0-.08,0-.08,0-.03-.04-.06-.08-.08-.11-.96-1.33-2.31-1.78-3.85-1.56-2.21.31-3.56,1.74-4.34,3.74-.47,1.19-.61,2.46-.38,3.72.18,1.06.55,2.05,1.44,2.74,1.47,1.12,3.78.95,5.12-.36.23-.22.43-.47.71-.77-.1.71-.31,1.3-.52,1.88-.77,2.09-2.18,2.69-4.33,2.41-.8-.11-1.55-.36-2.29-.66-.11-.04-.27-.19-.34.11-.16.61-.36,1.2-.56,1.79-.08.24-.01.3.22.38.94.32,1.91.47,2.9.58.87.1,1.74.08,2.6-.07,2.2-.4,3.51-1.8,4.22-3.85.42-1.23.62-2.51.89-3.77.54-2.47,1.07-4.95,1.62-7.42.06-.23,0-.24-.18-.24"/>
      <path class="cls-3" d="M370.09,8.02c-1.05.1-1.95.25-2.85.25-15.92.01-31.84.01-47.76.01-.13,0-.25,0-.38,0-.16-.01-.2-.16-.23-.31-.04-.17.07-.22.17-.27,1-.54,2-1.1,3.01-1.63.12-.06.28-.04.42-.04,15.12,0,30.25,0,45.37,0,.27,0,.49.07.68.29.48.54.98,1.07,1.56,1.71"/>
      <path class="cls-4" d="M258.6,41.09c-.54.45-1.18.69-1.88.56-1.04-.19-1.33-1.15-1.42-1.98-.02-.19,0-.38,0-.61-.06-.88.2-1.74.59-2.55.33-.7.86-1.26,1.58-1.56,1.27-.53,2.65.3,2.78,1.73.16,1.7-.25,3.26-1.63,4.41M262.7,27.95c-.24,0-.23.12-.27.29-.4,1.83-.82,3.65-1.22,5.48-.03.11,0,.24-.12.29-.13.06-.18-.1-.25-.17-1.96-1.94-5.31-1.48-6.92.62-1.39,1.82-1.88,3.88-1.49,6.1.46,2.6,2.32,3.64,4.62,3.18,1.03-.2,1.84-.79,2.55-1.63-.06.33-.12.67-.19,1-.07.31-.06.5.36.48.57-.03,1.14-.04,1.72,0,.4.04.52-.15.56-.48.19-1.71.63-3.37.99-5.05.73-3.37,1.5-6.73,2.26-10.12-.89,0-1.75,0-2.61,0"/>
      <path class="cls-2" d="M312.33,11.2c1.22-.76,2.31-1.43,3.4-2.12.15-.1.3-.09.46-.09,14.14,0,28.28,0,42.42,0,.15,0,.4-.17.43.23.03.37-.21.31-.37.35-1.61.48-3.2,1.03-4.79,1.59-.12.04-.25.05-.37.05-13.63,0-27.26,0-40.89,0-.05,0-.09,0-.28-.03"/>
      <path class="cls-2" d="M307.47,14.1c.98-.69,1.96-1.38,2.94-2.08.15-.11.31-.07.47-.07,12.66,0,25.32,0,37.98,0,.06,0,.13.01.19,0,.23-.05.22.16.28.33.09.26-.1.24-.18.29-1.12.53-2.24,1.04-3.36,1.58-.14.07-.28.06-.42.06-12.53,0-25.07,0-37.6,0h-.27s-.02-.07-.03-.11"/>
      <path class="cls-3" d="M323.94,32.82c-.47.75-.88,1.43-1.31,2.1-.14.22-.35.12-.53.12-4.04,0-8.08,0-12.11,0h-24.99c.47-.77.89-1.45,1.31-2.13.12-.19.29-.1.44-.1,2.16,0,4.32,0,6.49,0h30.71Z"/>
      <path class="cls-2" d="M326.14,29.87c-.48.76-.91,1.43-1.32,2.1-.13.22-.32.13-.48.13-3.82,0-7.63,0-11.45,0h-25.73c.53-.75,1-1.43,1.47-2.11.15-.21.36-.12.54-.12,5.38,0,10.75,0,16.13,0h20.84Z"/>
      <path class="cls-3" d="M328.55,26.91c-.53.77-.99,1.45-1.44,2.12-.14.2-.32.13-.49.13-3.07,0-6.14,0-9.21,0h-27.7c.47-.83,1.07-1.43,1.55-2.15.07-.11.17-.1.26-.1.13,0,.25,0,.38,0h36.65Z"/>
      <path class="cls-3" d="M295.51,23.15c.75-.75,1.39-1.38,2.02-2.04.14-.15.28-.21.46-.21,12.1,0,24.2,0,36.3.01.01,0,.03,0,.08.02-.32.58-.87.87-1.21,1.39-.45.69-1,.85-1.73.84-11.7-.03-23.41-.02-35.11-.02h-.83"/>
      <path class="cls-3" d="M299.12,20.16c.35-.5.8-.78,1.17-1.17.23-.25.49-.45.71-.72.17-.2.38-.33.67-.33,12.08.01,24.17.01,36.26.01h.31c-.84.76-1.6,1.46-2.37,2.17-.12.11-.24.08-.36.08-12.07,0-24.14,0-36.21,0-.04,0-.08-.02-.17-.04"/>
      <path class="cls-4" d="M130.49,36.85c-.04.23-.13.27-.34.27-1.48,0-2.95,0-4.43,0,.33-1.36,1.42-2.44,2.95-2.46,1.45-.01,2.03.99,1.82,2.2M132.14,33.8c-1.14-1.15-2.62-1.32-4.09-1.14-2.23.27-3.75,1.64-4.78,3.57-.59,1.11-.75,2.33-.63,3.58.09.96.41,1.86,1.12,2.6,1.07,1.13,2.47,1.4,3.92,1.45,1.17.05,2.3-.24,3.42-.56.1-.02.19-.07.2-.17.1-.68.2-1.36.31-2.09-1.24.54-2.48.85-3.79.74-1.53-.13-2.28-.72-2.52-2.18-.06-.35-.05-.61.48-.59,2.25.04,4.48,0,6.72.03.38,0,.5-.14.53-.47.04-.42.13-.84.16-1.27.11-1.3-.09-2.52-1.05-3.49"/>
      <path class="cls-4" d="M35.87,36.97c-.06.19-.2.13-.31.13-.69,0-1.4,0-2.1,0-.66,0-1.33-.02-2,.01-.4.01-.41-.12-.27-.43.53-1.22,1.42-1.94,2.78-2.05,1.27-.11,2.27,1.13,1.89,2.33M38.52,35.94c-.09-.92-.48-1.75-1.22-2.36-1.13-.92-2.48-1.1-3.83-.92-2.32.29-3.88,1.69-4.89,3.73-.58,1.17-.72,2.45-.52,3.74.17,1.06.62,1.98,1.49,2.66,1.05.82,2.28,1.05,3.54,1.07,1.12.02,2.22-.22,3.29-.54.26-.08.31-.26.34-.45.1-.6.18-1.2.27-1.83-1.22.53-2.47.84-3.79.75-1.31-.1-2.38-.65-2.51-2.28-.04-.45.1-.49.47-.49,2.26.01,4.52,0,6.77.01.26,0,.38-.02.45-.35.18-.91.22-1.83.13-2.74"/>
      <path class="cls-4" d="M160.81,36.99c-.07.18-.2.12-.31.12-.69,0-1.4,0-2.1,0s-1.36,0-2.05,0c-.27,0-.36-.02-.24-.33.51-1.28,1.41-2.03,2.81-2.14,1.28-.1,2.3,1.16,1.89,2.35M163.42,35.74c-.38-2.06-1.77-2.91-3.62-3.09-2.92-.28-4.98,1.22-6.23,3.63-.62,1.19-.77,2.51-.57,3.83.16,1.07.62,2.01,1.51,2.7,1.05.81,2.29,1.03,3.55,1.05,1.06.02,2.12-.21,3.15-.51.34-.1.41-.28.45-.56.08-.57.17-1.14.26-1.75-1.44.63-2.89.94-4.43.66-1.04-.19-1.77-.99-1.84-2.04q-.04-.62.6-.62c2.21,0,4.43,0,6.63,0,.13,0,.35.11.39-.12.2-1.05.34-2.11.14-3.16"/>
      <path class="cls-2" d="M366.71,5.32h-40.28c-.11,0-.22-.01-.33,0-.16.02-.16-.13-.21-.25-.08-.21.06-.24.15-.28,1.32-.62,2.66-1.2,4.01-1.7.15-.05.32-.02.48-.02,10.84,0,21.69,0,32.53,0,.33,0,.62.07.9.26.91.58,1.8,1.19,2.76,2"/>
      <path class="cls-4" d="M24.14,36.97c-.08.19-.19.13-.29.13-1.45,0-2.9,0-4.4,0,.42-1.12,1.01-1.98,2.17-2.33.49-.14.99-.17,1.48-.03.84.22,1.38,1.43,1.05,2.23M23.16,32.64c-2.83-.25-4.83,1.25-6.08,3.55-.57,1.04-.73,2.18-.67,3.34.08,1.79.99,3.24,2.67,3.88,1.93.74,3.83.42,5.72-.13.09-.03.17-.08.19-.19.1-.68.2-1.35.31-2.07-1.22.53-2.43.85-3.71.75-1.45-.13-2.25-.66-2.5-2.15-.1-.56-.05-.61.49-.61,2.19,0,4.39,0,6.58.01.38,0,.55-.1.56-.49,0-.35.06-.69.11-1.03.36-2.55-.82-4.61-3.67-4.87"/>
      <path class="cls-4" d="M247.46,37.11h-1.47c-.68,0-1.36,0-2.05,0-.14,0-.37.06-.26-.22.38-.95.94-1.75,1.97-2.09.51-.17,1.05-.19,1.58-.05.64.17,1.08.78,1.1,1.47q.01.9-.87.9M250.98,35.96c-.07-.89-.43-1.72-1.14-2.3-1.34-1.12-2.94-1.28-4.54-.88-1.94.48-3.3,1.79-4.16,3.57-.59,1.21-.77,2.51-.53,3.85.19,1.04.64,1.95,1.52,2.61,1.13.84,2.44,1.08,3.78,1.04.95-.02,1.89-.22,2.82-.5.31-.1.4-.25.45-.52.08-.59.17-1.17.27-1.79-1.19.5-2.39.81-3.67.75-1.51-.07-2.46-.89-2.54-2.28-.03-.46.1-.49.46-.49,2.23.01,4.45,0,6.68,0,.24,0,.39.03.47-.33.18-.91.21-1.82.14-2.73"/>
      <path class="cls-4" d="M84.96,43.59c.35-1.61.68-3.16,1.02-4.71.41-1.9.83-3.81,1.22-5.71.06-.29.17-.31.4-.31.68,0,1.37,0,2.05,0,.24,0,.39,0,.27.33-.07.19-.07.42-.13.64.2.05.27-.1.37-.18,1.4-1.17,3.46-1.36,4.87-.45,1.04.67,1.55,2.02,1.38,3.24-.31,2.29-.95,4.5-1.37,6.77-.05.27-.14.41-.45.39-.7-.03-1.4-.02-2.1,0-.29,0-.35-.1-.3-.36.41-1.91.83-3.82,1.2-5.74.1-.52.26-1.08.08-1.6-.36-1.06-1.09-1.26-2.17-1.01-1.13.26-1.75,1.12-2.08,2.18-.44,1.37-.64,2.79-.96,4.19-.16.68-.31,1.37-.45,2.05-.04.2-.1.29-.32.28-.83-.02-1.65,0-2.54,0"/>
      <path class="cls-4" d="M169.24,33.86c.74-.56,1.49-1.02,2.4-1.17,2.56-.44,4.55,1.23,4.18,3.9-.31,2.26-.95,4.45-1.37,6.69-.04.19-.09.32-.33.31-.76-.01-1.53-.01-2.29,0-.23,0-.27-.08-.22-.28.39-1.88.78-3.76,1.16-5.63.1-.48.17-.96.16-1.46-.02-.8-.61-1.35-1.41-1.41-1.25-.11-2.37.82-2.8,2.07-.45,1.3-.63,2.67-.95,4-.19.79-.33,1.6-.49,2.39-.04.19-.1.33-.37.32-.73-.02-1.46-.02-2.19,0-.28,0-.33-.11-.28-.33.62-2.81,1.24-5.61,1.86-8.42.12-.56.24-1.13.31-1.7.03-.23.09-.29.31-.29.73.01,1.46.01,2.19,0,.24,0,.35.1.24.31-.11.22.01.48-.12.7"/>
      <path class="cls-2" d="M303.03,17.1c.82-.68,1.64-1.35,2.46-2.03.13-.11.27-.07.41-.07,12.05,0,24.1,0,36.15,0,.18,0,.41-.06.46.25.05.3-.19.32-.32.42-.33.25-.71.42-1.02.71-.78.73-1.65.88-2.62.87-11.61-.03-23.21-.02-34.82-.02h-.66s-.03-.09-.04-.13"/>
      <path class="cls-4" d="M103.78,41.21c-.66.55-1.45.66-2.26.54-.51-.08-.93-.38-1.01-.92-.1-.61.14-1.15.63-1.54.51-.4,1.13-.57,1.75-.64.73-.08,1.48-.17,2.25-.07-.25.98-.52,1.94-1.35,2.62M107.81,34.47c-.66-1.32-1.89-1.72-3.23-1.83-1.33-.12-2.63.08-3.91.46-.32.1-.5.26-.54.59-.08.59-.19,1.17-.29,1.79.14-.06.25-.11.36-.15,1.24-.48,2.5-.82,3.85-.61.85.13,1.58.52,1.52,1.62-.03.45-.15.6-.61.58-1.29-.05-2.57-.01-3.83.28-1.63.38-2.96,1.1-3.26,2.95-.19,1.17.14,2.56,1.33,3.2,1.32.71,2.68.7,4-.05.58-.32,1-.84,1.52-1.42-.12.65-.2,1.15-.31,1.71.64,0,1.25-.05,1.85.01.44.04.57-.16.62-.52.29-2.04.8-4.04,1.13-6.07.14-.85.21-1.72-.2-2.54"/>
      <path class="cls-2" d="M331.21,24.02c-.51.68-1.01,1.33-1.5,1.99-.17.24-.38.16-.57.16-5.23,0-10.46,0-15.69,0h-20.95c.61-.76,1.17-1.44,1.72-2.13.13-.16.29-.12.45-.12,12.08,0,24.17,0,36.26,0,.09,0,.19-.04.29.09"/>
      <path class="cls-4" d="M80.39,39.28c-.22.68-.49,1.33-1.04,1.83-.64.58-1.41.75-2.23.65-.47-.06-.89-.31-1.03-.78-.15-.52-.03-1.03.35-1.45.53-.59,1.26-.76,1.99-.89.47-.08.94-.06,1.26-.08.92,0,.92,0,.69.72M81.51,32.97c-1.88-.65-3.74-.34-5.59.23-.15.04-.16.14-.18.24-.13.66-.26,1.33-.39,2.03,1.36-.53,2.68-.94,4.13-.76,1.08.13,1.7.89,1.48,1.9-.05.25-.15.31-.4.31-.92-.01-1.84-.05-2.75.08-1,.14-1.96.36-2.88.85-1.89,1.01-2.05,4.06-.57,5.24.99.79,3.03,1.11,4.41.13.5-.36.88-.85,1.39-1.28-.1.49-.18.92-.26,1.35-.04.19-.03.3.22.29.62-.01,1.24,0,1.86,0,.19,0,.27-.05.3-.26.15-.96.34-1.92.52-2.88.27-1.45.64-2.89.74-4.37.1-1.47-.61-2.64-2.01-3.12"/>
      <path class="cls-3" d="M312.29,50.65c-.02.11-.02.15-.03.18-.33.66-.53,1.55-1.03,1.91-.46.33-1.23.1-1.87.1-10.53,0-21.06,0-31.59.01-.43,0-.54-.07-.45-.61.24-1.58.22-1.59,1.59-1.59h33.38Z"/>
      <path class="cls-4" d="M4.77,34.93h3.67c.29,0,.57.02.86,0,.34-.03.36.13.3.4-.12.5-.27,1-.33,1.51-.04.3-.17.31-.4.31-1.38,0-2.77.01-4.15-.01-.37,0-.47.14-.54.47-.37,1.89-.77,3.77-1.16,5.65-.05.24-.13.36-.43.35-.86-.03-1.71-.01-2.58-.01.86-4.1,1.71-8.17,2.57-12.24.14-.67.35-1.33.44-2.01.05-.36.21-.34.45-.34,1.13,0,2.26,0,3.39,0,1.27,0,2.54,0,3.82,0,.36,0,.57,0,.4.47-.16.46-.22.95-.3,1.43-.05.3-.17.41-.49.41-1.43-.02-2.86.01-4.29-.02-.4,0-.5.17-.56.49-.21,1.04-.43,2.07-.65,3.15"/>
      <path class="cls-2" d="M296.1,47.7h17.23c.53,0,.53,0,.29.59q-.64,1.62-2.11,1.62h-33.02c-.6,0-.6,0-.43-.68.13-.5.14-1.18.43-1.45.27-.25.82-.08,1.25-.08,5.46,0,10.91,0,16.37,0"/>
      <path class="cls-2" d="M321.68,35.86c-.45.76-.83,1.41-1.2,2.07-.14.25-.34.18-.52.18-2.34,0-4.68-.02-7.01.02-.44,0-.68-.15-.78-.7-.02-.15-.1-.28-.16-.42-.05.03-.09.03-.09.05q-.25,1.05-1.09,1.05h-27.74c.37-.76.7-1.4,1.01-2.06.07-.15.15-.19.27-.18.14,0,.29,0,.43,0h36.89Z"/>
      <path class="cls-3" d="M310.62,53.6c-.41.76-.77,1.43-1.14,2.09-.06.11-.16.17-.28.16-.11-.01-.22,0-.33,0-10.48,0-20.96,0-31.44,0-.42,0-.65,0-.5-.64.1-.4.07-.85.11-1.28.03-.33.14-.35.36-.35,1.19,0,2.38,0,3.58,0h29.65Z"/>
      <path class="cls-4" d="M330.63,74.7c-1.19.81-2.42,1.37-3.64,1.97-.41.2-.82.28-1.25.28-11.72,0-23.44,0-35.16,0-.14,0-.29.01-.43,0-.67-.07-.69-.26-.4-1.13.3-.92.76-1.12,1.38-1.12,13.17.01,26.33.01,39.5.01"/>
      <path class="cls-2" d="M308.64,56.62c-.45.76-.83,1.4-1.21,2.03-.09.15-.2.24-.36.21-.09-.01-.19,0-.29,0-9.8,0-19.6,0-29.39.02-.51,0-.61-.21-.61-.75-.01-1.51-.02-1.51,1.2-1.51h30.66Z"/>
      <path class="cls-4" d="M200.42,41.31c-.16.7-.32,1.35-.45,2-.04.19-.08.29-.32.29-2.7-.01-5.41,0-8.11,0-.22,0-.32-.03-.27-.29,1.01-4.65,2.02-9.3,3-13.95.07-.33.19-.36.45-.35.75.01,1.5.01,2.24,0,.26,0,.31.06.25.32-.85,3.87-1.68,7.74-2.51,11.6-.06.28,0,.38.32.38,1.78-.02,3.56,0,5.4,0"/>
      <path class="cls-4" d="M295.65,73.86c1.25-.7,2.49-1.41,3.74-2.1.1-.06.22-.04.33-.04,12.58,0,25.16,0,37.75,0,.06,0,.12,0,.29.02-1.06.84-2.05,1.55-3.06,2.19-.11.07-.25.04-.38.04-12.79,0-25.58,0-38.37,0h-.28s-.01-.08-.02-.11"/>
      <path class="cls-3" d="M281.39,40.99c.34-.74.63-1.38.91-2.03.08-.18.18-.25.34-.23.1,0,.19,0,.29,0h27.72q.6,0,.38.65-.54,1.61-1.96,1.61h-27.68Z"/>
      <path class="cls-3" d="M306.41,59.63c-.52.77-.98,1.45-1.44,2.13-.11.16-.26.12-.39.12-9.02,0-18.03,0-27.05.01-.35,0-.44-.18-.47-.53-.05-.57-.1-1.14-.15-1.73h29.5Z"/>
      <path class="cls-3" d="M309.84,41.69c-.5.67-.95,1.23-1.35,1.83-.24.36-.5.43-.86.43-4.23-.01-8.46,0-12.69,0h-14.97c.28-.73.54-1.41.81-2.09.05-.13.16-.17.28-.17.11,0,.22,0,.33,0h28.44Z"/>
      <path class="cls-4" d="M339.72,32.32c.3-.74.55-1.35.79-1.98.08-.22.19-.3.34-.28.1.01.19,0,.29,0h33.86q.56,0,.45.8-.21,1.46-1.21,1.46h-34.53Z"/>
      <path class="cls-4" d="M303.32,71c1.16-.79,2.18-1.5,3.21-2.19.1-.06.22-.04.33-.04,12.02,0,24.05,0,36.07,0,.03,0,.06,0,.16.02-.41.58-.89.86-1.3,1.31-.67.74-1.4.93-2.22.93-11.86-.04-23.73-.02-35.59-.02h-.65Z"/>
      <path class="cls-3" d="M307.12,44.69c-.4.42-.69.75-1.01,1.07-.2.2-.16.32.06.43.09.04.17.1.26.14.13.06.22.14.2.33-.03.22-.17.24-.32.23-.1,0-.19,0-.29,0h-26.62c-.59,0-.6,0-.38-.67.16-.49.19-1.15.54-1.43.35-.29.89-.09,1.35-.09,8.52,0,17.04,0,25.57,0h.64Z"/>
      <path class="cls-4" d="M351.45,62.76c-.62.75-1.15,1.38-1.66,2.03-.19.24-.41.21-.63.21-5.87,0-11.73,0-17.6,0h-16.24c.36-.52.79-.74,1.11-1.16.69-.93,1.48-1.1,2.39-1.1,10.59.04,21.18.02,31.76.02h.87Z"/>
      <path class="cls-4" d="M328.61,53.09c.35-.76.64-1.4.94-2.05.07-.15.16-.22.28-.2.08.01.16,0,.24,0,11.08,0,22.17,0,33.25,0h.5c-.44.73-.84,1.37-1.22,2.02-.18.31-.41.22-.62.22-9.76,0-19.53,0-29.29,0h-4.09Z"/>
      <path class="cls-4" d="M232.8,34.92c.12-.61.24-1.2.35-1.78.04-.2.14-.29.36-.28.48.01.95,0,1.43,0,.24,0,.36-.06.41-.33.09-.54.26-1.07.35-1.61.04-.26.17-.32.37-.39.88-.28,1.75-.56,2.69-.87-.2.96-.37,1.89-.6,2.8-.09.37.02.41.32.4.6-.01,1.21,0,1.81,0,.25,0,.34.04.25.33-.14.44-.25.91-.3,1.37-.03.37-.21.38-.49.37-.6-.02-1.21.01-1.81-.01-.25-.01-.34.1-.38.3-.36,1.61-.74,3.22-1.06,4.84-.25,1.32.46,1.88,1.94,1.52.51-.12.46.01.35.38-.11.34-.16.71-.21,1.06-.06.43-.25.63-.72.73-.83.17-1.63.14-2.42-.09-1.25-.37-1.85-1.43-1.76-2.88.08-1.25.41-2.45.66-3.67.12-.61.29-1.22.43-1.83.05-.22.03-.36-.28-.35-.55.03-1.11,0-1.69,0"/>
      <path class="cls-4" d="M42.17,34.92c-.58,0-1.13-.01-1.69,0-.27,0-.37-.05-.29-.35.13-.47.24-.94.32-1.42.04-.24.14-.31.37-.3.46.02.92-.01,1.38.01.28.02.38-.09.43-.35.1-.52.25-1.03.33-1.55.04-.23.14-.35.33-.41.9-.29,1.8-.58,2.77-.89-.23,1.08-.45,2.11-.68,3.2.71,0,1.4.02,2.1,0,.39-.02.42.15.34.46-.09.33-.22.66-.23,1-.02.55-.28.67-.77.62-.49-.04-.98,0-1.48-.02-.29-.01-.41.04-.48.38-.37,1.65-.77,3.29-1.06,4.95-.16.94.46,1.59,1.39,1.43.34-.06.66-.15,1.02-.23-.13.6-.26,1.22-.38,1.84-.08.39-.4.35-.68.43-.85.23-1.68.17-2.49-.12-1.06-.37-1.64-1.21-1.67-2.32-.04-1.23.28-2.4.53-3.58.19-.92.41-1.83.63-2.78"/>
      <path class="cls-4" d="M179.96,34.92h-2.02c.12-.61.23-1.2.35-1.78.04-.22.18-.3.41-.29.46.02.92,0,1.38,0,.24,0,.36-.05.4-.33.08-.53.25-1.04.34-1.56.04-.26.15-.37.39-.44.88-.27,1.75-.56,2.69-.87-.18.84-.34,1.64-.53,2.43-.18.77-.19.76.61.76.48,0,.95,0,1.43,0,.25,0,.33.05.26.33-.14.48-.25.98-.32,1.47-.03.25-.14.26-.33.26-.64,0-1.27.01-1.91-.01-.26,0-.36.08-.41.31-.36,1.63-.75,3.26-1.07,4.9-.22,1.15.45,1.74,1.6,1.49q.85-.18.63.69c-.05.2-.13.39-.14.59-.01.54-.27.78-.8.86-1.15.17-2.26.14-3.24-.59-.55-.41-.78-1-.84-1.67-.1-1.21.16-2.37.43-3.54.23-1,.45-2.01.69-3.04"/>
      <path class="cls-4" d="M356.84,33.09h17.37c.54,0,.54,0,.38.79q-.31,1.48-1.3,1.48h-34.17q-.56,0-.42-.88s0-.05,0-.07q.22-1.31,1.1-1.31h17.04Z"/>
      <path class="cls-4" d="M347.56,65.79c-.64.89-1.32,1.49-1.94,2.21-.07.08-.22.03-.33.03-11.7,0-23.4,0-35.11,0-.06,0-.12,0-.28-.02.92-.77,1.76-1.48,2.61-2.16.12-.09.28-.05.42-.05,11.42,0,22.83,0,34.25,0h.37Z"/>
      <path class="cls-4" d="M368.52,44.93c-.36.78-.66,1.44-.96,2.11-.07.15-.15.16-.25.16-.11,0-.22,0-.33,0h-34.1c.37-.71.7-1.3,1-1.94.18-.38.41-.32.64-.32,5.8,0,11.61,0,17.41,0h16.6Z"/>
      <path class="cls-4" d="M330.76,50.1c.01-.11,0-.16.02-.2.49-1.64,1.28-2.06,2.47-2.05,10.73.09,21.47.05,32.2.05h.85c-.38.71-.73,1.35-1.07,1.99-.16.31-.38.2-.57.2-8.81,0-17.62,0-26.43,0h-7.48Z"/>
      <path class="cls-4" d="M319.48,61.94c.46-.63.92-1.26,1.38-1.89.14-.19.29-.25.48-.25,11.1,0,22.2,0,33.3,0,.04,0,.09.02.22.05-.56.75-1.07,1.44-1.58,2.11-.11.14-.24.08-.37.08-11.05,0-22.11,0-33.16,0-.09,0-.19.07-.28-.1"/>
      <path class="cls-1" d="M277.35,62.57h26.53c-.62.83-1.25,1.54-1.93,2.2-.08.08-.24.05-.36.05-7.76,0-15.52,0-23.28,0-.29,0-.47-.05-.54-.44-.1-.6-.26-1.19-.41-1.82"/>
      <path class="cls-2" d="M220.95,57.23c1.04-1.5,3.36-1.77,4.41.02.44-.73,1.1-1.11,1.91-1.21,1.43-.18,2.43.46,2.61,1.91.22,1.75.06,3.52.1,5.28,0,.24-.09.3-.31.29-.41-.01-.83-.02-1.24,0-.31.02-.37-.1-.36-.38.01-1.3,0-2.61,0-3.91,0-.27-.04-.53-.07-.8-.06-.48-.27-.81-.74-.92-.63-.14-1.09.08-1.38.58-.29.51-.37,1.07-.38,1.64-.01,1.13-.01,2.26,0,3.38,0,.31-.08.42-.39.39-.36-.03-.73-.04-1.1,0-.38.04-.43-.12-.43-.46.02-1.43,0-2.86,0-4.29,0-.72-.27-1.17-.76-1.27-.73-.14-1.28.19-1.53.92-.13.36-.19.72-.19,1.11.01,1.19-.01,2.38.01,3.57,0,.34-.1.44-.43.41-.48-.05-1.14.2-1.41-.11-.24-.27-.07-.91-.07-1.38,0-1.78.02-3.56-.01-5.34,0-.46.14-.59.56-.52.05,0,.1,0,.14,0q1,0,1.05,1.05"/>
      <path class="cls-4" d="M341.67,29.35c.4-.79.72-1.41,1.03-2.06.14-.29.31-.19.48-.19,2.59,0,5.18,0,7.77,0h24.56c.55,0,.59.06.5.92-.03.29-.11.56-.09.87.02.36-.1.49-.32.47-.08,0-.16,0-.24,0h-33.7Z"/>
      <path class="cls-4" d="M357.97,56.9c-.41.81-.98,1.26-1.34,2.08-.09.22-.26.1-.39.1-1.51,0-3.02,0-4.53,0h-28.87c.53-.77.99-1.43,1.45-2.11.11-.16.23-.13.36-.13,11.07,0,22.13,0,33.2,0,.03,0,.06.02.13.05"/>
      <path class="cls-4" d="M325.97,56.02c.27-.39.55-.65.7-1.03.41-1.01.98-1.14,1.69-1.14,10.64.03,21.27.02,31.91.02h.73c-.5.78-.94,1.47-1.38,2.15-.09.14-.21.08-.32.08-11.05,0-22.1,0-33.15,0-.03,0-.06-.02-.19-.08"/>
      <path class="cls-4" d="M373.58,35.98c0,.1,0,.12,0,.14q-.49,1.97-1.91,1.97c-8.57,0-17.14,0-25.71,0-.3,0-.58-.06-.87-.25-.95-.62-1.88-.33-2.85.03-.99.37-2.02.58-2.96-.34-.09-.09-.19-.19-.25-.31-.18-.35-.47-.74-.37-1.14.07-.28.46-.1.71-.1,11.16,0,22.32,0,33.48,0h.72Z"/>
      <path class="cls-2" d="M169.11,60.51c0,.78,0,1.56,0,2.33,0,.24-.06.34-.32.41-1.74.46-3.47.65-5.23.09-2.04-.65-3.05-2.26-3.13-4.27-.06-1.37.18-2.67,1.03-3.8.78-1.03,1.86-1.53,3.09-1.75,1.29-.23,2.57-.12,3.84.18.3.07.53.14.37.55-.09.22-.04.5-.03.75.01.36-.05.47-.46.33-1.1-.37-2.22-.55-3.38-.21-1.38.4-2.34,1.68-2.38,3.12-.03,1.11.15,2.13.97,2.96.68.68,1.52.92,2.45.91,1.26-.01,1.27-.01,1.26-1.27,0-.47.21-1.1-.1-1.37-.26-.23-.88-.07-1.33-.08-.67,0-.67,0-.67-.69q0-.9.93-.9c.91,0,1.81.01,2.72,0,.3,0,.38.09.37.38-.02.78,0,1.56,0,2.33"/>
      <path class="cls-4" d="M344.22,26.4c.48-.76.9-1.43,1.32-2.1.12-.2.26-.15.4-.15,9.97,0,19.93,0,29.9-.01.31,0,.39.13.39.62,0,1.64,0,1.64-1.02,1.64h-30.99Z"/>
      <path class="cls-4" d="M10.31,43.59c.92-4.35,1.84-8.67,2.75-12.99.16-.76.31-1.52.48-2.29.05-.23.15-.39.47-.38.68.04,1.37.03,2.05,0,.33-.01.38.12.33.38-.73,3.33-1.46,6.66-2.18,9.99-.36,1.66-.71,3.33-1.05,5-.04.18-.06.28-.27.28-.86,0-1.71,0-2.58,0"/>
      <path class="cls-2" d="M104.03,59.7c-.78,0-1.56,0-2.33,0-.2,0-.3-.02-.21-.27.45-1.26.89-2.53,1.38-3.93.49,1.4.92,2.65,1.37,3.9.1.26.02.3-.21.3M107.84,63.26c-1.2-3.05-2.41-6.09-3.58-9.15-.16-.41-.35-.57-.79-.52-.44.04-.89.03-1.33,0-.29-.02-.42.1-.51.35-.66,1.7-1.33,3.4-1.98,5.1-.57,1.48-1.15,2.96-1.74,4.48.64,0,1.19-.02,1.75,0,.27.01.35-.11.43-.32.21-.57.45-1.14.64-1.72.07-.2.17-.27.37-.27,1.16,0,2.32,0,3.48,0,.22,0,.33.06.41.29.18.58.43,1.14.64,1.71.06.19.13.3.35.29.64-.01,1.27,0,1.95,0-.05-.11-.07-.18-.1-.25"/>
      <path class="cls-4" d="M347.41,23.39c.61-.72,1.11-1.3,1.6-1.9.24-.29.49-.37.79-.37,8.56.01,17.11,0,25.67,0,.61,0,.62.02.65.96q.04,1.29-.81,1.29h-27.9Z"/>
      <path class="cls-2" d="M196.57,61.36c-.23.48-.58.8-1.16.84-.66.04-1.15-.2-1.45-.77-.47-.91-.52-1.86-.13-2.82.35-.86.85-1.16,1.71-1.09.55.04,1.08.63,1.25,1.36.08.32.13.65.09.96.04.55-.08,1.06-.31,1.52M198.45,57.63c-.87-2.05-3.88-2.12-4.85-.54-.02.02-.08.02-.15.04,0-.15-.02-.27,0-.39.07-.44-.06-.65-.55-.57-.23.04-.48.03-.71,0-.42-.05-.56.08-.56.53.03,2.77,0,5.53.01,8.29,0,.47-.2,1.1.08,1.38.3.31.94.05,1.42.1.36.04.41-.12.4-.43-.02-1.09,0-2.19,0-3.39.13.11.2.16.25.22,1.04,1.29,3.88,1.13,4.69-.92.57-1.44.57-2.89-.03-4.32"/>
      <path class="cls-2" d="M236.06,61.72c-.61.71-1.72.64-2.25-.12-.61-.87-.66-2.49-.08-3.37.37-.57.9-.82,1.58-.73.56.09.87.48,1.08.96.19.44.22.91.22,1.49,0,.57-.08,1.22-.54,1.76M238.38,58.14c-.48-1.56-1.47-2.15-2.96-2.14-.86,0-1.6.36-2.14,1.15q-.08-.98-1-.98c-.14,0-.29.02-.43,0-.32-.05-.43.06-.43.41.02,1.36,0,2.73,0,4.09,0,1.79.01,3.59,0,5.38,0,.34.09.45.42.42.33-.03.67-.03,1,0,.37.04.49-.08.48-.47-.03-1.07,0-2.14,0-3.34,1.4,1.67,4.48,1.27,5.08-1.26.27-1.1.31-2.2-.03-3.27"/>
      <path class="cls-2" d="M300.69,65.55c-.8.78-1.58,1.45-2.36,2.11-.16.14-.32.14-.49.14-6.1,0-12.21,0-18.31,0-.23,0-.38-.06-.48-.32-.25-.63-.52-1.24-.74-1.94h22.38Z"/>
      <path class="cls-4" d="M351.57,20.25c.68-.68,1.36-1.35,2.03-2.04.12-.12.25-.07.37-.07,7.03,0,14.06,0,21.08-.01.34,0,.44.18.51.66.21,1.6.23,1.6-.88,1.6h-23.08s-.03-.1-.04-.14"/>
      <path class="cls-4" d="M347.23,38.93h24.98c-.25.72-.48,1.39-.72,2.05-.12.32-.35.18-.52.18-5.61,0-11.23,0-16.84,0-1.96,0-3.91-.01-5.87.01-.34,0-.53-.15-.64-.63-.12-.53-.25-1.04-.38-1.62"/>
      <path class="cls-4" d="M370.47,41.91c-.04.15-.04.2-.06.24q-.77,2.01-2.32,2.01h-21.34c.07-.66.39-1,.71-1.26.75-.6,1.53-1.01,2.42-1.01,6.68.03,13.35.02,20.03.02h.56Z"/>
      <path class="cls-2" d="M347.54,2.23c-3.82,0-7.63,0-11.45,0-.15,0-.4.17-.44-.21-.04-.36.2-.29.37-.34,2-.53,4.03-.9,6.07-1.23,2.97-.49,5.94-.5,8.92-.39,2.73.11,5.43.67,8.06,1.54.11.04.21.07.31.12.12.06.14.18.14.32,0,.19-.12.19-.23.19-.11,0-.22,0-.33,0h-11.4"/>
      <path class="cls-2" d="M254.38,56.18c.6,0,1.18.01,1.75,0,.25,0,.35.08.43.32.54,1.66,1.09,3.31,1.68,5.07.21-.61.41-1.14.58-1.67.36-1.12.73-2.24,1.08-3.36.08-.26.19-.38.49-.36.51.03,1.02,0,1.58,0-.44,1.15-.86,2.27-1.28,3.39-.65,1.72-1.29,3.44-1.96,5.14-.36.91-.88,1.69-1.93,1.91-.6.12-1.2.06-1.78-.07-.11-.02-.2-.1-.18-.24.04-.36.06-.73.1-1.09.02-.21.18-.07.25-.06.37.03.73.14,1.12,0,.66-.23,1.02-.87.78-1.52-.86-2.36-1.72-4.72-2.58-7.08-.04-.11-.07-.23-.12-.37"/>
      <path class="cls-2" d="M118.79,61.73c.06.5-.04.98.08,1.45.04.14-.02.21-.15.24-2.07.44-4.08.47-5.89-.85-.96-.7-1.44-1.71-1.59-2.86-.19-1.44-.07-2.84.72-4.11.76-1.22,1.92-1.83,3.29-2.08,1.08-.2,2.16-.15,3.22.16.3.09.35.22.36.49.01.42-.09.81-.13,1.26-.52-.16-1.01-.36-1.55-.44-2.12-.32-3.7,1.15-3.88,3-.13,1.32.11,2.48,1.15,3.39.68.6,1.5.74,2.38.73.68-.01,1.35-.13,1.99-.38"/>
      <path class="cls-2" d="M210.15,61.76c0,.39-.04.78.01,1.15.05.38-.1.52-.45.59-1.42.28-2.83.29-4.21-.19-2.01-.69-3.1-2.45-3.01-4.75.04-1.01.2-1.98.73-2.85.78-1.29,1.97-1.94,3.42-2.19.96-.17,1.91-.14,2.86.09.68.16.73.22.66.92-.02.16-.07.31-.09.46-.02.16,0,.31,0,.49-.52-.21-1-.39-1.54-.47-2.12-.34-3.69,1.06-3.91,2.88-.18,1.45.11,2.7,1.31,3.63.92.71,1.99.65,3.05.53.4-.05.78-.19,1.19-.29"/>
      <path class="cls-2" d="M180.18,61.35c-.34.69-.99.96-1.89.83-.61-.08-1.2-.71-1.34-1.49-.06-.31-.17-.61-.11-.89,0-1.12.45-1.91,1.22-2.19.93-.34,1.9.06,2.27.97.38.94.3,1.88-.15,2.78M178.68,56.01c-2.37,0-3.83,1.54-3.82,3.89.01,2.3,1.44,3.71,3.83,3.79,2.52-.09,3.86-1.6,3.85-3.82,0-2.37-1.49-3.87-3.86-3.86"/>
      <path class="cls-2" d="M216.03,60.99c-.27.75-.68,1.29-1.94,1.2-.66-.05-1.27-.62-1.45-1.42-.08-.32-.15-.64-.1-.94-.06-.9.18-1.66.96-2.11.88-.5,2.25-.27,2.65,1.22.18.69.12,1.38-.12,2.05M214.34,56.01c-2.22.02-3.85,1.51-3.81,4.06.04,2.09,1.67,3.65,3.86,3.64,2.28-.01,3.81-1.56,3.81-3.83.03-2.32-1.58-3.88-3.85-3.86"/>
      <path class="cls-2" d="M148.33,58.77c.24-.88.78-1.4,1.77-1.36.74.04,1.22.49,1.42,1.38.07.29-.02.35-.29.34-.44-.02-.89,0-1.33,0s-.85-.01-1.28,0c-.32.02-.35-.13-.28-.37M148.67,60.44c1.19.02,2.39,0,3.58,0s1.16,0,1.02-1.19c-.23-2.03-.94-2.83-2.92-3.22-1.01-.2-2.49.28-3.12,1.24-.64.94-.78,1.96-.73,3.05.07,1.45.9,2.67,2.21,3.1.94.31,1.89.34,2.85.13,1.26-.29,1.25-.3,1.24-1.56v-.4c-.59.29-1.12.54-1.69.64-1.24.2-2.36-.07-2.74-1.35-.1-.35-.05-.45.31-.45"/>
      <path class="cls-3" d="M248.82,57.09c.88-1.01,1.97-1.31,3.22-.96,1.08.29,1.55,1.18,1.6,2.21.07,1.62.01,3.24.02,4.86,0,.25-.06.34-.32.32-.5-.03-1.15.16-1.48-.09-.31-.24-.09-.92-.1-1.41-.02-1.03,0-2.06-.02-3.1,0-.75-.36-1.3-.87-1.41-.75-.16-1.4.18-1.73.91-.16.35-.27.71-.27,1.09,0,1.19-.02,2.38,0,3.57,0,.31-.05.47-.41.44-.48-.05-1.14.2-1.41-.1-.24-.27-.08-.9-.08-1.38,0-1.79.01-3.59-.01-5.38,0-.41.12-.54.5-.48.09.02.19,0,.29,0q.95,0,1.06.92"/>
      <path class="cls-2" d="M123.94,60.86c-.25,1.03-1.01,1.56-2.06,1.42-.41-.06-.75-.26-.84-.71-.1-.44.08-.8.44-1.07.36-.27,1.01-.4,1.86-.4.66,0,.76.13.6.77M125.68,58.49c-.03-1.21-.66-2-1.84-2.33-1.05-.31-2.09-.15-3.12.12-.69.18-.68.2-.68.93v.94c.12-.06.2-.1.27-.15.73-.46,1.52-.66,2.38-.59.64.04,1.09.38,1.24.96.12.5.03.62-.48.62-.24,0-.48,0-.72,0-.84.02-1.68.06-2.44.5-.79.44-1.13,1.14-1.12,2.01,0,.82.42,1.44,1.15,1.82,1.29.68,2.6.4,3.68-.82.04.26.1.52.12.78.01.17.07.22.23.22.41,0,.83,0,1.24,0,.15,0,.2-.03.2-.22-.06-1.6-.1-3.21-.13-4.81"/>
      <path class="cls-2" d="M188.45,62.55c-.59.6-1.22.97-2.01,1.11-1.43.24-2.67-.66-2.83-2.1-.19-1.7-.04-3.39-.1-5.09,0-.24.08-.3.3-.29.4.01.8.03,1.19,0,.33-.02.43.07.42.41-.02,1.26-.01,2.51,0,3.77,0,.31.04.63.11.94.1.42.32.8.77.87.57.1,1.14.04,1.54-.5.37-.51.52-1.1.53-1.72.02-1.13.02-2.26,0-3.38,0-.31.08-.42.39-.39.46.04,1.05-.18,1.33.08.29.27.08.87.08,1.33.01,1.84,0,3.69.01,5.53,0,.34-.1.46-.43.41-.11-.02-.22,0-.33,0q-.92,0-1-.97"/>
      <path class="cls-2" d="M136.28,60.94c-.27,1.01-1.05,1.52-2.05,1.34-.41-.08-.65-.33-.7-.71-.06-.43.03-.85.43-1.11.52-.34,1.14-.32,1.59-.36.94,0,.94.01.73.84M138.06,58.46c-.04-1.13-.47-1.89-1.65-2.26-1.26-.39-2.48-.19-3.69.27-.17.06-.24.15-.22.35.04.43.05.85.08,1.35.77-.52,1.54-.82,2.45-.75.73.05,1.19.4,1.33,1.1.06.33.01.52-.42.5-.85-.03-1.71-.06-2.54.22-.89.29-1.52.85-1.68,1.81-.14.82.1,1.52.76,2.07.87.71,2.2.75,3.19.12.31-.19.5-.49.8-.75v.25q0,.79.77.79c.19,0,.38-.03.57,0,.33.04.4-.1.39-.4-.08-1.55-.06-3.11-.13-4.66"/>
      <path class="cls-2" d="M242.16,62.28c-.71,0-1.13-.27-1.19-.75-.08-.65.33-1.17,1.12-1.32.51-.1,1.03-.14,1.56-.12.2.01.29.06.28.27-.04.96-.59,1.97-1.77,1.92M245.55,60.3c0-.76.07-1.52-.09-2.28-.2-.94-.62-1.62-1.66-1.87-.97-.23-1.91-.17-2.85.06-1.06.25-1.05.27-.94,1.37.02.18.02.36.04.57.78-.51,1.58-.79,2.49-.74.77.04,1.19.35,1.37,1.1.09.36.01.52-.4.5-.89-.03-1.78-.05-2.64.22-.86.27-1.77.91-1.7,2.4.04.87.73,1.7,1.73,1.95,1.24.3,2.28-.05,3.11-1.13q.1,1.06,1.15,1.06s.1-.01.14,0c.29.04.4-.07.37-.36-.09-.95-.1-1.9-.1-2.86"/>
      <path class="cls-4" d="M226.26,43.59c.57-2.62,1.13-5.19,1.69-7.77.18-.84.36-1.67.52-2.51.06-.31.16-.49.54-.46.65.04,1.3.03,1.95,0,.34-.01.42.11.36.41-.73,3.36-1.46,6.72-2.18,10.09-.04.17-.1.25-.28.25-.85,0-1.71,0-2.6,0"/>
      <path class="cls-4" d="M203.13,43.59c-.37,0-.73-.02-1.1,0-.29.02-.31-.11-.26-.34.65-2.96,1.29-5.92,1.93-8.89.09-.4.17-.8.24-1.2.04-.21.13-.32.38-.32.73.01,1.46.01,2.19,0,.28,0,.3.09.24.34-.73,3.34-1.44,6.69-2.16,10.03-.06.26-.17.4-.48.37-.33-.04-.67,0-1,0"/>
      <path class="cls-2" d="M138.73,56.18c.59,0,1.17.02,1.76,0,.3-.01.31.2.37.38.54,1.57,1.08,3.13,1.62,4.7.02.05.04.11.09.23.26-.45.35-.89.49-1.31.4-1.19.79-2.37,1.16-3.57.11-.36.29-.46.64-.44.45.03.91,0,1.41,0-.49,1.33-.95,2.61-1.42,3.89-.39,1.05-.79,2.09-1.16,3.14-.08.24-.19.32-.44.31-.51-.02-1.02,0-1.53,0-.19,0-.31-.03-.39-.24-.85-2.33-1.72-4.65-2.58-6.98-.01-.03,0-.06-.01-.12"/>
      <path class="cls-4" d="M308.37,80c-1.25,0-2.49,0-3.74,0-3.74-.1-7.73-1.18-9.97-2.26h25.41c-1.89.75-3.82,1.23-5.75,1.6-1.98.37-3.96.7-5.96.66"/>
      <path class="cls-2" d="M279.9,68.58h16.42c-1.09.85-2.14,1.53-3.19,2.21-.12.08-.28.05-.42.05-3.67,0-7.34,0-11.01,0-.19,0-.38.04-.52-.18-.44-.64-.85-1.31-1.27-2.08"/>
      <path class="cls-4" d="M356.24,17.44c.67-.91,1.44-1.49,2.16-2.18.12-.11.31-.07.47-.07,5.04,0,10.08,0,15.12-.02.39,0,.56.18.66.75.08.5.22.97.34,1.51h-18.75Z"/>
      <path class="cls-2" d="M154.41,58.15c0-1.64.01-3.27-.01-4.91,0-.34.11-.44.49-.41.56.05,1.3-.2,1.62.11.28.27.09.91.09,1.38,0,2.91,0,5.81.01,8.72,0,.41-.13.53-.58.48-.38-.04-.77-.03-1.15,0-.38.03-.49-.07-.49-.41.02-1.65.01-3.3.01-4.95"/>
      <path class="cls-2" d="M128.83,57.83c.38-.96.89-1.59,1.8-1.8.68-.16.85-.03.85.67v1.21c-.37.06-.7-.17-1.06-.08-.78.18-1.24.86-1.32,1.78-.11,1.19-.07,2.37-.07,3.56,0,.25-.04.39-.33.36-.52-.05-1.19.22-1.51-.11-.25-.26-.08-.93-.08-1.42,0-1.81,0-3.62,0-5.43,0-.31.08-.42.39-.39.42.03.97-.12,1.24.08.27.2.06.77.08,1.18,0,.08,0,.17,0,.39"/>
      <path class="cls-3" d="M172.26,57.69c.37-.85.92-1.47,1.85-1.68.63-.14.8,0,.8.64,0,.38,0,.76,0,1.14,0,.03,0,.06-.01.11-.34.05-.66-.17-1.01-.1-.77.15-1.24.8-1.34,1.72-.13,1.19-.06,2.38-.08,3.56,0,.31-.04.48-.4.43-.48-.05-1.12.2-1.42-.11-.28-.28-.07-.91-.07-1.38,0-1.79,0-3.59-.01-5.38,0-.35.05-.54.46-.48.4.05.95-.17,1.18.1.2.23.06.76.07,1.15,0,.09,0,.18,0,.26"/>
      <path class="cls-4" d="M361.36,14.36c.8-.67,1.61-1.32,2.41-2.01.16-.14.3-.11.45-.11,2.81,0,5.62,0,8.43-.02.29,0,.47.13.59.55.15.56.33,1.1.52,1.71h-12.37s-.02-.08-.03-.13"/>
      <path class="cls-3" d="M282.43,71.53c2.36,0,4.63,0,6.9,0,.12,0,.29-.09.32.19.03.25-.06.31-.23.39-1.26.61-2.55,1.15-3.86,1.59-.47.16-.92.12-1.33-.3-.58-.6-1.2-1.14-1.8-1.86"/>
      <path class="cls-3" d="M319.41,38.75c-.79.99-1.49,1.97-2.6,2.23-.19.04-.37.05-.56,0-1.05-.25-2.34-1.21-2.98-2.23h6.14Z"/>
      <path class="cls-4" d="M230.44,30.89c-.38,0-.76,0-1.14,0-.23,0-.27-.09-.23-.29.16-.7.31-1.4.46-2.09.04-.19.13-.29.36-.29.74.01,1.49.01,2.24,0,.25,0,.3.08.24.31-.16.68-.31,1.36-.45,2.05-.05.23-.15.32-.38.31-.36-.01-.73,0-1.09,0"/>
      <path class="cls-4" d="M207.85,28.23c-.17.79-.32,1.52-.47,2.26-.06.3-.18.44-.53.42-.66-.04-1.33-.02-2,0-.27,0-.39-.06-.32-.34.16-.7.32-1.4.46-2.11.04-.19.14-.22.3-.22h2.56"/>
      <path class="cls-4" d="M366.95,11.41c1.04-.74,1.95-1.41,2.87-2.06.12-.09.26-.15.41-.18.57-.11,1.01.1,1.29.9.16.45.37.85.59,1.33h-5.16Z"/>
      <path class="cls-4" d="M335.8,44.66c1.53-3.01,4.2-3.02,4.89,0h-4.89Z"/>
      <path class="cls-1" d="M314.97,44.99c-.12.8-.35,1.39-.51,2.01-.06.24-.2.25-.35.25-.49,0-.98,0-1.47,0-.11,0-.27.08-.27-.23,0-.24.05-.38.22-.45.8-.38,1.56-.92,2.39-1.58"/>
    </g>
  </g>
</svg>