<svg xmlns="http://www.w3.org/2000/svg" xmlns:xlink="http://www.w3.org/1999/xlink" width="150" zoomAndPan="magnify" viewBox="0 0 112.5 67.499998" height="90" preserveAspectRatio="xMidYMid meet" version="1.2"><defs><clipPath id="9783f2b0c1"><path d="M 2.566406 24 L 7 24 L 7 33 L 2.566406 33 Z M 2.566406 24 "/></clipPath><clipPath id="b087c93b80"><path d="M 6 20.101562 L 30 20.101562 L 30 33 L 6 33 Z M 6 20.101562 "/></clipPath><clipPath id="d98869a853"><path d="M 2.566406 34 L 19 34 L 19 46.902344 L 2.566406 46.902344 Z M 2.566406 34 "/></clipPath><clipPath id="74de4f36c6"><path d="M 20 34 L 30 34 L 30 46.902344 L 20 46.902344 Z M 20 34 "/></clipPath><clipPath id="1cd0109558"><path d="M 97 27 L 109.769531 27 L 109.769531 40 L 97 40 Z M 97 27 "/></clipPath></defs><g id="5d5533882f"><g clip-rule="nonzero" clip-path="url(#9783f2b0c1)"><path style=" stroke:none;fill-rule:nonzero;fill:#181718;fill-opacity:1;" d="M 6.960938 25.179688 L 6.960938 31.308594 C 6.960938 31.832031 6.535156 32.257812 6.007812 32.257812 L 3.527344 32.257812 C 3 32.257812 2.574219 31.832031 2.574219 31.308594 L 2.574219 25.179688 C 2.574219 24.65625 3 24.230469 3.527344 24.230469 L 6.007812 24.230469 C 6.535156 24.230469 6.960938 24.65625 6.960938 25.179688 Z M 6.960938 25.179688 "/></g><g clip-rule="nonzero" clip-path="url(#b087c93b80)"><path style=" stroke:none;fill-rule:nonzero;fill:#181718;fill-opacity:1;" d="M 29.308594 21.050781 L 29.308594 31.308594 C 29.308594 31.832031 28.886719 32.257812 28.359375 32.257812 L 25.878906 32.257812 C 25.351562 32.257812 24.925781 31.832031 24.925781 31.308594 L 24.925781 25.179688 C 24.925781 24.65625 24.5 24.230469 23.976562 24.230469 L 19.085938 24.230469 C 18.558594 24.230469 18.136719 24.65625 18.136719 25.179688 L 18.136719 31.308594 C 18.136719 31.832031 17.710938 32.257812 17.183594 32.257812 L 14.703125 32.257812 C 14.175781 32.257812 13.75 31.832031 13.75 31.308594 L 13.75 25.179688 C 13.75 24.65625 13.324219 24.230469 12.800781 24.230469 L 7.910156 24.230469 C 7.382812 24.230469 6.960938 23.804688 6.960938 23.28125 L 6.960938 21.050781 C 6.960938 20.527344 7.382812 20.101562 7.910156 20.101562 L 28.359375 20.101562 C 28.886719 20.101562 29.308594 20.527344 29.308594 21.050781 Z M 29.308594 21.050781 "/></g><g clip-rule="nonzero" clip-path="url(#d98869a853)"><path style=" stroke:none;fill-rule:nonzero;fill:#181718;fill-opacity:1;" d="M 17.15625 34.539062 L 3.699219 34.539062 C 3.078125 34.539062 2.574219 35.042969 2.574219 35.660156 L 2.574219 45.78125 C 2.574219 46.402344 3.078125 46.902344 3.699219 46.902344 L 17.15625 46.902344 C 17.777344 46.902344 18.277344 46.402344 18.277344 45.78125 L 18.277344 35.660156 C 18.277344 35.042969 17.777344 34.539062 17.15625 34.539062 Z M 13.800781 41.984375 C 13.800781 42.425781 13.441406 42.78125 13 42.78125 L 7.890625 42.78125 C 7.449219 42.78125 7.089844 42.425781 7.089844 41.984375 L 7.089844 39.46875 C 7.089844 39.027344 7.449219 38.671875 7.890625 38.671875 L 13 38.671875 C 13.441406 38.671875 13.800781 39.027344 13.800781 39.46875 Z M 13.800781 41.984375 "/></g><g clip-rule="nonzero" clip-path="url(#74de4f36c6)"><path style=" stroke:none;fill-rule:nonzero;fill:#181718;fill-opacity:1;" d="M 28.300781 34.539062 L 21.378906 34.539062 C 20.851562 34.539062 20.429688 34.964844 20.429688 35.488281 L 20.429688 45.957031 C 20.429688 46.480469 20.851562 46.902344 21.378906 46.902344 L 23.859375 46.902344 C 24.386719 46.902344 24.8125 46.480469 24.8125 45.957031 L 24.8125 38.628906 L 28.300781 38.628906 C 28.859375 38.628906 29.308594 38.175781 29.308594 37.621094 L 29.308594 35.546875 C 29.308594 34.992188 28.859375 34.539062 28.300781 34.539062 Z M 28.300781 34.539062 "/></g><path style=" stroke:none;fill-rule:nonzero;fill:#181718;fill-opacity:1;" d="M 48.730469 27.277344 L 47.167969 27.535156 C 47.507812 27.40625 47.898438 27.3125 48.335938 27.277344 Z M 48.730469 27.277344 "/><path style=" stroke:none;fill-rule:nonzero;fill:#181718;fill-opacity:1;" d="M 52.824219 30.816406 L 52.824219 39.554688 L 51.003906 39.554688 L 51.003906 31.394531 C 51.003906 30.121094 49.972656 29.09375 48.699219 29.09375 L 48.585938 29.09375 C 46.824219 29.09375 45.398438 30.515625 45.398438 32.269531 L 45.398438 39.554688 L 43.578125 39.554688 L 43.578125 31.394531 C 43.578125 30.121094 42.546875 29.09375 41.273438 29.09375 L 41.0625 29.09375 C 39.300781 29.09375 37.875 30.515625 37.875 32.269531 L 37.875 39.554688 L 36.054688 39.554688 L 36.054688 27.277344 L 37.875 27.277344 L 37.875 29.054688 C 37.875 29.054688 38.875 27.472656 40.808594 27.277344 L 42.03125 27.277344 C 42.527344 27.304688 43.386719 27.449219 44.097656 28.035156 C 44.472656 28.347656 44.808594 28.78125 45.027344 29.390625 C 45.027344 29.390625 45.609375 28.109375 47.167969 27.535156 L 48.730469 27.277344 L 49.273438 27.277344 C 51.234375 27.277344 52.824219 28.863281 52.824219 30.816406 Z M 52.824219 30.816406 "/><path style=" stroke:none;fill-rule:nonzero;fill:#181718;fill-opacity:1;" d="M 41.625 27.277344 L 40.808594 27.277344 C 41.0625 27.25 41.335938 27.25 41.625 27.277344 Z M 41.625 27.277344 "/><path style=" stroke:none;fill-rule:nonzero;fill:#181718;fill-opacity:1;" d="M 42.03125 27.277344 L 41.625 27.277344 C 41.625 27.277344 41.78125 27.261719 42.03125 27.277344 Z M 42.03125 27.277344 "/><path style=" stroke:none;fill-rule:nonzero;fill:#181718;fill-opacity:1;" d="M 48.859375 27.257812 L 48.730469 27.277344 L 47.167969 27.535156 C 47.507812 27.40625 47.898438 27.3125 48.335938 27.277344 C 48.503906 27.261719 48.675781 27.253906 48.859375 27.257812 Z M 48.859375 27.257812 "/><path style=" stroke:none;fill-rule:nonzero;fill:#181718;fill-opacity:1;" d="M 53.507812 27.257812 L 55.757812 27.257812 L 58.875 37.417969 L 62.085938 27.257812 L 64.191406 27.257812 L 59.210938 41.71875 C 59.210938 41.71875 58.097656 44.539062 55.539062 44.539062 L 53.507812 44.539062 L 53.507812 42.960938 L 54.707031 42.960938 C 54.707031 42.960938 56.480469 43.199219 57.199219 41.335938 L 57.917969 39.554688 Z M 53.507812 27.257812 "/><path style=" stroke:none;fill-rule:nonzero;fill:#181718;fill-opacity:1;" d="M 73.195312 38.851562 C 73.179688 38.851562 73.171875 38.851562 73.160156 38.851562 C 72.992188 38.851562 71.578125 38.832031 68.648438 38.527344 C 66.550781 38.3125 66.699219 37.441406 67.023438 36.890625 C 67.179688 36.621094 67.515625 36.503906 67.804688 36.617188 C 68.480469 36.878906 69.222656 37.023438 70.003906 37.023438 C 72.652344 37.023438 74.863281 35.355469 75.410156 33.121094 C 75.410156 33.121094 75.410156 33.113281 75.410156 33.113281 C 75.464844 32.882812 75.503906 32.644531 75.523438 32.402344 L 76.335938 27.253906 L 74.433594 27.253906 L 74.246094 28.851562 C 73.230469 27.765625 71.707031 27.070312 70.003906 27.070312 C 66.945312 27.070312 64.46875 29.296875 64.46875 32.046875 C 64.46875 33.429688 65.09375 34.679688 66.105469 35.582031 C 64.453125 36.746094 64.875 38.3125 64.875 38.3125 C 65.339844 40.425781 68.753906 40.175781 71.019531 40.28125 C 72.351562 40.347656 73.113281 40.441406 73.511719 40.507812 C 73.785156 40.554688 74.019531 40.722656 74.148438 40.964844 C 74.867188 42.339844 72.847656 42.921875 72.558594 42.996094 C 72.539062 43 72.519531 43.003906 72.5 43.011719 C 70.496094 43.398438 68.320312 43.148438 68.320312 43.148438 C 65.195312 42.933594 66.308594 40.589844 66.308594 40.589844 L 64.65625 40.210938 C 64.410156 40.347656 64.285156 40.703125 64.222656 41.09375 C 64.042969 42.207031 64.566406 43.332031 65.542969 43.894531 C 67.992188 45.308594 72.382812 44.535156 72.382812 44.535156 C 72.382812 44.535156 75.976562 43.972656 76.15625 41.570312 C 76.328125 39.277344 73.445312 38.878906 73.191406 38.851562 Z M 70.121094 28.914062 C 72.113281 28.914062 73.730469 30.316406 73.730469 32.050781 C 73.730469 33.785156 72.113281 35.1875 70.121094 35.1875 C 68.128906 35.1875 66.515625 33.78125 66.515625 32.050781 C 66.515625 30.320312 68.128906 28.914062 70.121094 28.914062 Z M 70.121094 28.914062 "/><path style=" stroke:none;fill-rule:nonzero;fill:#181718;fill-opacity:1;" d="M 87.828125 37.5625 L 87.800781 31.433594 C 87.800781 31.433594 88.484375 27.382812 82.699219 27.257812 C 76.914062 27.128906 76.949219 31.433594 76.949219 31.433594 L 78.914062 31.445312 C 78.75 30.011719 79.921875 28.914062 82.914062 28.914062 C 84.625 28.914062 85.390625 29.628906 85.730469 30.246094 C 86.042969 30.804688 85.792969 31.511719 85.207031 31.769531 C 84.761719 31.964844 84.070312 32.140625 83.011719 32.1875 C 80.980469 32.277344 79.652344 32.675781 79.113281 32.867188 C 78.957031 32.921875 78.804688 32.992188 78.664062 33.070312 C 77.617188 33.671875 77.121094 34.460938 76.914062 35.203125 C 76.464844 36.761719 77.207031 38.445312 78.65625 39.183594 C 79.3125 39.515625 80.203125 39.757812 81.40625 39.757812 C 84.734375 39.757812 85.957031 38.085938 85.957031 38.085938 C 86.078125 39.136719 86.4375 39.535156 86.4375 39.535156 L 88.449219 39.535156 C 87.875 39.101562 87.828125 37.5625 87.828125 37.5625 Z M 85.910156 34.429688 C 85.910156 35.308594 85.632812 36.171875 85.078125 36.859375 C 84.574219 37.488281 83.792969 38.050781 82.617188 38.039062 L 80.886719 38.039062 C 80.503906 38.039062 80.121094 37.964844 79.773438 37.804688 C 79.214844 37.542969 78.589844 37.003906 78.699219 35.910156 C 78.699219 35.910156 78.652344 34.40625 81.261719 33.953125 C 83.875 33.5 85.910156 33.332031 85.910156 33.332031 Z M 85.910156 34.429688 "/><path style=" stroke:none;fill-rule:nonzero;fill:#181718;fill-opacity:1;" d="M 93.109375 36.59375 L 93.109375 36.933594 C 93.085938 36.738281 93.109375 36.59375 93.109375 36.59375 Z M 93.109375 36.59375 "/><path style=" stroke:none;fill-rule:nonzero;fill:#181718;fill-opacity:1;" d="M 93.109375 36.59375 C 93.109375 36.59375 93.085938 36.738281 93.109375 36.933594 C 93.140625 37.226562 93.273438 37.640625 93.734375 37.859375 C 94.101562 38.035156 94.683594 38.09375 95.597656 37.859375 L 95.597656 39.757812 L 93.109375 39.757812 C 92.058594 39.757812 91.203125 38.910156 91.203125 37.859375 L 91.203125 29.152344 L 88.226562 29.152344 L 88.226562 27.253906 L 90.539062 27.253906 C 90.90625 27.253906 91.203125 26.957031 91.203125 26.589844 L 91.203125 23.394531 L 93.109375 23.394531 L 93.109375 27.253906 L 97.011719 27.253906 L 97.011719 29.152344 L 93.109375 29.152344 Z M 93.109375 36.59375 "/><g clip-rule="nonzero" clip-path="url(#1cd0109558)"><path style=" stroke:none;fill-rule:nonzero;fill:#181718;fill-opacity:1;" d="M 109.675781 32.445312 C 109.179688 29.425781 106.617188 27.128906 103.535156 27.128906 C 100.09375 27.128906 97.304688 29.984375 97.304688 33.507812 C 97.304688 37.03125 100.09375 39.886719 103.535156 39.886719 C 106.222656 39.886719 108.515625 38.140625 109.382812 35.695312 L 107.46875 35.695312 C 106.710938 37.121094 105.230469 38.089844 103.535156 38.089844 C 101.269531 38.089844 99.402344 36.371094 99.101562 34.140625 L 109.730469 34.140625 C 109.75 33.933594 109.761719 33.722656 109.761719 33.507812 L 109.761719 33.445312 C 109.757812 33.105469 109.726562 32.769531 109.675781 32.445312 Z M 99.179688 32.445312 C 99.644531 30.425781 101.417969 28.921875 103.535156 28.921875 C 105.648438 28.921875 107.421875 30.425781 107.886719 32.445312 Z M 99.179688 32.445312 "/></g></g></svg>