<svg xmlns="http://www.w3.org/2000/svg" xmlns:xlink="http://www.w3.org/1999/xlink" width="150" zoomAndPan="magnify" viewBox="0 0 112.5 67.499998" height="90" preserveAspectRatio="xMidYMid meet" version="1.2"><g id="d49a48113c"><path style=" stroke:none;fill-rule:nonzero;fill:#231f20;fill-opacity:1;" d="M 71.136719 18.441406 L 74.472656 17.605469 L 74.46875 17.660156 C 74.644531 17.605469 74.8125 17.554688 74.992188 17.511719 C 76.378906 17.144531 77.808594 17.097656 79.132812 17.484375 L 79.132812 17.492188 C 80.507812 17.894531 81.714844 18.722656 82.578125 20.082031 L 82.703125 18.554688 L 82.800781 17.277344 L 83.820312 16.546875 C 84.742188 15.878906 85.808594 15.265625 86.929688 14.765625 C 88.015625 14.273438 89.171875 13.871094 90.320312 13.609375 C 91.414062 13.359375 92.515625 13.226562 93.546875 13.253906 C 95.117188 13.300781 96.59375 13.699219 97.835938 14.578125 C 99.167969 15.519531 100.140625 16.917969 100.5625 18.878906 C 100.730469 19.65625 100.808594 20.507812 100.785156 21.433594 L 100.492188 32.578125 L 100.441406 34.632812 L 98.5 35.148438 L 92.8125 36.652344 L 89.71875 37.472656 C 88.683594 37.796875 87.648438 37.910156 86.667969 37.828125 C 85.535156 37.742188 84.476562 37.402344 83.554688 36.847656 L 83.519531 38.132812 L 81.542969 38.617188 L 75.707031 40.054688 L 72.355469 40.882812 L 72.367188 40.320312 L 72.269531 40.339844 L 66.46875 41.773438 L 63.117188 42.597656 L 63.152344 41.261719 C 62.875 41.507812 62.582031 41.738281 62.28125 41.957031 C 60.640625 43.144531 58.625 43.910156 56.574219 44.160156 C 55.253906 44.320312 53.910156 44.269531 52.621094 43.972656 L 52.617188 44.113281 L 50.683594 44.628906 L 44.992188 46.144531 L 41.832031 46.984375 C 41.472656 47.089844 41.117188 47.175781 40.761719 47.230469 C 40.460938 49.285156 39.777344 50.949219 38.832031 52.234375 C 37.59375 53.925781 35.925781 54.945312 34.058594 55.347656 C 32.316406 55.722656 30.4375 55.535156 28.609375 54.828125 C 27.179688 54.273438 25.777344 53.394531 24.511719 52.214844 L 24.496094 52.667969 L 22.390625 53.066406 L 16.089844 54.265625 L 12.910156 54.871094 L 12.976562 51.523438 L 13.289062 36.132812 C 12.167969 35.988281 11.347656 35.195312 10.582031 33.851562 C 10.160156 33.109375 9.90625 32.308594 9.597656 31.320312 C 9.476562 30.949219 9.417969 30.769531 9.386719 30.667969 L 8.753906 28.734375 L 10.386719 27.5625 C 13.117188 25.597656 15.675781 24.128906 18.03125 23.074219 C 20.691406 21.886719 23.101562 21.234375 25.242188 21.007812 C 29.324219 20.570312 32.5 21.679688 34.636719 23.632812 C 35.335938 24.273438 35.910156 24.996094 36.371094 25.777344 C 37.199219 25.21875 38.132812 24.699219 39.109375 24.253906 C 40.195312 23.765625 41.355469 23.363281 42.5 23.097656 C 43.570312 22.855469 44.664062 22.730469 45.730469 22.757812 C 47.308594 22.804688 48.789062 23.207031 50.015625 24.074219 C 50.550781 24.453125 51.023438 24.898438 51.429688 25.433594 C 51.640625 25.035156 51.875 24.644531 52.140625 24.285156 C 53.171875 22.871094 54.578125 21.734375 56.164062 20.996094 C 57.738281 20.253906 59.496094 19.898438 61.214844 20.035156 C 62.054688 20.101562 62.890625 20.285156 63.6875 20.589844 L 63.695312 20.3125 L 65.664062 19.824219 Z M 71.136719 18.441406 "/><path style=" stroke:none;fill-rule:nonzero;fill:#066234;fill-opacity:1;" d="M 70.664062 17.824219 L 73.996094 16.988281 L 73.996094 17.046875 C 74.164062 16.992188 74.34375 16.9375 74.515625 16.898438 C 75.90625 16.527344 77.335938 16.484375 78.65625 16.871094 L 78.65625 16.875 C 80.035156 17.277344 81.238281 18.109375 82.105469 19.460938 L 82.230469 17.933594 L 82.332031 16.660156 L 83.34375 15.925781 C 84.269531 15.261719 85.335938 14.652344 86.457031 14.144531 C 87.546875 13.652344 88.699219 13.25 89.84375 12.988281 C 90.945312 12.738281 92.039062 12.605469 93.078125 12.636719 C 94.644531 12.683594 96.125 13.082031 97.363281 13.957031 C 98.695312 14.902344 99.664062 16.296875 100.089844 18.261719 C 100.257812 19.039062 100.335938 19.886719 100.3125 20.8125 L 100.019531 31.957031 L 99.964844 34.011719 L 98.023438 34.527344 L 92.339844 36.027344 L 89.25 36.851562 C 88.207031 37.179688 87.175781 37.289062 86.195312 37.210938 C 85.066406 37.121094 84.007812 36.78125 83.082031 36.230469 L 83.046875 37.519531 L 81.070312 38.003906 L 75.234375 39.441406 L 71.886719 40.265625 L 71.898438 39.703125 L 71.800781 39.726562 L 66 41.152344 L 62.644531 41.976562 L 62.683594 40.640625 C 62.402344 40.886719 62.113281 41.121094 61.816406 41.335938 C 60.171875 42.523438 58.15625 43.292969 56.101562 43.542969 C 54.789062 43.703125 53.441406 43.648438 52.148438 43.355469 L 52.148438 43.5 L 50.214844 44.011719 L 44.527344 45.527344 L 41.367188 46.363281 C 41.011719 46.476562 40.652344 46.558594 40.296875 46.617188 C 39.996094 48.667969 39.316406 50.332031 38.371094 51.621094 C 37.125 53.308594 35.460938 54.328125 33.597656 54.734375 C 31.851562 55.109375 29.964844 54.917969 28.148438 54.210938 C 26.71875 53.65625 25.316406 52.78125 24.050781 51.601562 L 24.039062 52.054688 L 21.929688 52.449219 L 15.628906 53.652344 L 12.449219 54.257812 L 12.507812 50.902344 L 12.828125 35.511719 C 11.707031 35.367188 10.878906 34.582031 10.121094 33.234375 C 9.695312 32.488281 9.441406 31.691406 9.128906 30.703125 C 9.015625 30.328125 8.960938 30.148438 8.925781 30.050781 L 8.292969 28.113281 L 9.925781 26.941406 C 12.660156 24.980469 15.21875 23.511719 17.570312 22.457031 C 20.234375 21.265625 22.636719 20.617188 24.78125 20.390625 C 28.863281 19.957031 32.042969 21.058594 34.175781 23.015625 C 34.867188 23.652344 35.449219 24.378906 35.910156 25.160156 C 36.738281 24.597656 37.675781 24.078125 38.648438 23.636719 C 39.734375 23.144531 40.894531 22.746094 42.035156 22.480469 C 43.109375 22.230469 44.203125 22.109375 45.269531 22.140625 C 46.847656 22.1875 48.328125 22.585938 49.554688 23.453125 C 50.082031 23.832031 50.566406 24.28125 50.96875 24.8125 C 51.179688 24.414062 51.417969 24.023438 51.6875 23.660156 C 52.707031 22.253906 54.121094 21.117188 55.703125 20.375 C 57.28125 19.632812 59.039062 19.273438 60.753906 19.410156 C 61.597656 19.480469 62.429688 19.664062 63.230469 19.96875 L 63.238281 19.695312 L 65.203125 19.199219 Z M 70.664062 17.824219 "/><path style=" stroke:none;fill-rule:nonzero;fill:#231f20;fill-opacity:1;" d="M 101.804688 13.222656 C 101.96875 13.222656 102.089844 13.191406 102.15625 13.140625 C 102.234375 13.074219 102.269531 12.992188 102.277344 12.894531 C 102.277344 12.828125 102.261719 12.769531 102.226562 12.71875 C 102.195312 12.667969 102.144531 12.628906 102.085938 12.597656 C 102.03125 12.578125 101.941406 12.558594 101.816406 12.550781 L 101.828125 12.257812 C 102.027344 12.265625 102.171875 12.289062 102.273438 12.332031 C 102.378906 12.375 102.46875 12.445312 102.527344 12.546875 C 102.589844 12.652344 102.621094 12.757812 102.617188 12.871094 C 102.613281 13.03125 102.558594 13.171875 102.445312 13.285156 C 102.335938 13.398438 102.191406 13.460938 102.003906 13.472656 C 102.078125 13.507812 102.128906 13.546875 102.171875 13.59375 C 102.257812 13.683594 102.355469 13.832031 102.472656 14.035156 L 102.714844 14.476562 L 102.308594 14.464844 L 102.128906 14.109375 C 101.988281 13.835938 101.878906 13.664062 101.789062 13.589844 L 101.789062 13.585938 Z M 101.746094 15.351562 L 101.789062 15.355469 C 102.125 15.363281 102.449219 15.285156 102.75 15.117188 C 103.066406 14.945312 103.304688 14.703125 103.484375 14.382812 C 103.664062 14.066406 103.757812 13.730469 103.765625 13.382812 C 103.773438 13.027344 103.695312 12.6875 103.535156 12.351562 C 103.375 12.027344 103.136719 11.765625 102.835938 11.582031 C 102.535156 11.398438 102.222656 11.304688 101.894531 11.292969 L 101.847656 11.292969 L 101.839844 11.628906 L 101.871094 11.628906 C 102.160156 11.640625 102.417969 11.71875 102.671875 11.871094 C 102.925781 12.027344 103.117188 12.242188 103.257812 12.515625 C 103.386719 12.792969 103.457031 13.074219 103.449219 13.371094 C 103.4375 13.664062 103.363281 13.941406 103.214844 14.203125 C 103.0625 14.472656 102.863281 14.671875 102.601562 14.816406 C 102.34375 14.957031 102.070312 15.027344 101.800781 15.023438 L 101.75 15.019531 Z M 101.339844 13.207031 L 101.753906 13.21875 L 101.804688 13.222656 L 101.789062 13.589844 C 101.730469 13.542969 101.644531 13.511719 101.53125 13.511719 L 101.328125 13.507812 L 101.308594 14.4375 L 100.96875 14.429688 L 101.03125 12.234375 L 101.742188 12.253906 C 101.769531 12.253906 101.800781 12.257812 101.832031 12.257812 L 101.820312 12.554688 C 101.796875 12.550781 101.769531 12.550781 101.742188 12.550781 L 101.355469 12.542969 Z M 101.851562 11.292969 C 101.546875 11.292969 101.25 11.371094 100.949219 11.53125 C 100.640625 11.695312 100.394531 11.941406 100.210938 12.257812 C 100.027344 12.582031 99.929688 12.914062 99.925781 13.269531 C 99.921875 13.617188 99.992188 13.960938 100.15625 14.285156 C 100.316406 14.613281 100.542969 14.875 100.84375 15.054688 C 101.128906 15.234375 101.425781 15.332031 101.746094 15.347656 L 101.753906 15.015625 C 101.496094 15 101.246094 14.914062 101.007812 14.769531 C 100.757812 14.613281 100.566406 14.398438 100.429688 14.125 C 100.292969 13.851562 100.230469 13.570312 100.234375 13.277344 C 100.246094 12.984375 100.328125 12.699219 100.476562 12.433594 C 100.628906 12.171875 100.835938 11.960938 101.097656 11.824219 C 101.335938 11.695312 101.585938 11.628906 101.839844 11.628906 Z M 101.851562 11.292969 "/><path style=" stroke:none;fill-rule:nonzero;fill:#094522;fill-opacity:1;" d="M 36.023438 45.332031 C 32.8125 44.433594 28.890625 42.308594 27.617188 39.871094 C 38.15625 34.476562 36.292969 21.894531 25.046875 23.097656 C 21.433594 23.476562 16.871094 25.277344 11.421875 29.1875 C 12.402344 32.191406 12.554688 33.628906 15.535156 31.832031 L 15.144531 50.972656 L 21.445312 49.773438 L 21.660156 41.636719 C 22.117188 44.195312 23.105469 46.34375 24.386719 48.023438 C 27.738281 52.410156 33.054688 53.582031 35.890625 50.425781 C 36.847656 49.355469 37.523438 47.796875 37.746094 45.707031 C 37.207031 45.628906 36.628906 45.503906 36.023438 45.332031 M 24.644531 38.246094 C 23.816406 39.097656 22.824219 39.871094 21.6875 40.492188 L 22 28.566406 C 23.148438 28.242188 24.117188 28.15625 24.90625 28.269531 C 28.9375 28.816406 28.425781 34.359375 24.644531 38.246094 "/><path style=" stroke:none;fill-rule:nonzero;fill:#094522;fill-opacity:1;" d="M 42.605469 25.144531 L 42.597656 25.144531 C 40.597656 25.601562 38.558594 26.5625 37.042969 27.652344 L 36.652344 32.480469 C 37.859375 31.398438 40.691406 29.929688 42.476562 29.949219 C 43.429688 29.960938 44.082031 30.394531 44.039062 31.539062 L 44.003906 32.402344 C 43.570312 32.175781 43.027344 32.050781 42.417969 32.015625 C 40.515625 31.910156 37.996094 32.773438 36.300781 34.59375 C 35.820312 35.101562 35.414062 35.691406 35.101562 36.359375 C 34.757812 37.074219 34.53125 37.894531 34.460938 38.730469 L 34.4375 39.496094 C 34.480469 40.617188 34.824219 41.714844 35.578125 42.558594 C 35.730469 42.730469 35.898438 42.886719 36.078125 43.027344 C 37.582031 44.234375 39.90625 44.410156 42.128906 43.082031 C 42.761719 42.699219 43.386719 42.199219 43.976562 41.5625 L 43.859375 42.890625 L 49.546875 41.378906 L 49.839844 30.234375 C 49.984375 25.171875 46.351562 24.285156 42.605469 25.144531 M 43.382812 38.601562 C 43.09375 38.8125 42.675781 39.011719 42.238281 39.113281 C 41.578125 39.265625 40.863281 39.214844 40.464844 38.710938 C 39.835938 37.921875 40.472656 36.75 41.121094 36.214844 C 41.421875 35.972656 41.863281 35.753906 42.324219 35.644531 C 42.980469 35.492188 43.679688 35.558594 44.089844 36.078125 C 44.738281 36.898438 44.09375 38.085938 43.382812 38.601562 "/><path style=" stroke:none;fill-rule:nonzero;fill:#094522;fill-opacity:1;" d="M 61.316406 28.433594 L 63.78125 23.355469 C 59.671875 20.195312 52.96875 23.441406 52.582031 28.519531 C 52.394531 31.003906 53.875 32.355469 56.1875 33.167969 C 58.464844 33.976562 56.230469 37.097656 52.382812 35.296875 L 52.246094 40.578125 C 57.1875 42.019531 63.769531 38.640625 63.136719 33.113281 C 62.878906 30.855469 61.09375 29.875 59.28125 29.003906 C 56.972656 27.886719 60.167969 25.757812 61.316406 28.433594 "/><path style=" stroke:none;fill-rule:nonzero;fill:#094522;fill-opacity:1;" d="M 71.257812 21.898438 L 71.289062 20.46875 L 65.816406 21.84375 L 65.378906 38.507812 L 71.1875 37.082031 L 71.421875 27.898438 C 71.4375 27.132812 71.574219 26.375 71.976562 25.800781 C 72.421875 25.148438 73.484375 24.539062 74.257812 24.984375 C 74.925781 25.375 74.890625 26.363281 74.875 27.035156 L 74.617188 36.792969 L 80.453125 35.359375 L 80.730469 24.785156 C 80.929688 17.382812 74.21875 18.667969 71.257812 21.898438 "/><path style=" stroke:none;fill-rule:nonzero;fill:#094522;fill-opacity:1;" d="M 90.417969 15.65625 C 88.414062 16.113281 86.375 17.074219 84.859375 18.160156 L 84.472656 22.996094 C 85.671875 21.910156 88.503906 20.4375 90.289062 20.457031 L 90.292969 20.457031 C 91.246094 20.46875 91.898438 20.90625 91.851562 22.050781 L 91.816406 22.914062 C 91.386719 22.6875 90.84375 22.558594 90.234375 22.527344 L 90.230469 22.527344 C 87.796875 22.398438 84.34375 23.847656 82.917969 26.871094 C 82.574219 27.585938 82.351562 28.410156 82.277344 29.242188 L 82.257812 30.007812 C 82.296875 31.128906 82.644531 32.226562 83.402344 33.066406 C 84.84375 34.675781 87.460938 35.078125 89.945312 33.589844 C 90.578125 33.207031 91.203125 32.710938 91.792969 32.070312 L 91.679688 33.394531 L 97.371094 31.886719 L 97.667969 20.742188 C 97.800781 15.679688 94.167969 14.792969 90.417969 15.65625 M 91.199219 29.121094 C 90.90625 29.328125 90.488281 29.523438 90.054688 29.628906 L 90.046875 29.628906 C 89.390625 29.78125 88.6875 29.722656 88.28125 29.226562 C 87.648438 28.4375 88.285156 27.261719 88.9375 26.726562 C 89.238281 26.484375 89.675781 26.261719 90.140625 26.15625 L 90.140625 26.152344 C 90.800781 26.003906 91.492188 26.070312 91.90625 26.585938 C 92.554688 27.410156 91.914062 28.597656 91.199219 29.121094 "/><path style=" stroke:none;fill-rule:nonzero;fill:#ffffff;fill-opacity:1;" d="M 35.628906 45.078125 C 32.421875 44.175781 28.496094 42.050781 27.226562 39.621094 C 37.765625 34.226562 35.90625 21.640625 24.652344 22.839844 C 21.042969 23.21875 16.46875 25.023438 11.03125 28.925781 C 12.011719 31.9375 12.164062 33.371094 15.140625 31.574219 L 14.75 50.71875 L 21.050781 49.519531 L 21.265625 41.382812 C 21.722656 43.9375 22.710938 46.089844 23.992188 47.769531 C 27.339844 52.152344 32.65625 53.324219 35.496094 50.167969 C 36.453125 49.101562 37.128906 47.542969 37.351562 45.449219 C 36.820312 45.378906 36.234375 45.25 35.628906 45.078125 M 24.253906 37.988281 C 23.421875 38.84375 22.429688 39.617188 21.296875 40.242188 L 21.609375 28.3125 C 22.761719 27.988281 23.722656 27.90625 24.515625 28.015625 C 28.542969 28.5625 28.039062 34.105469 24.253906 37.988281 "/><path style=" stroke:none;fill-rule:nonzero;fill:#ffffff;fill-opacity:1;" d="M 42.214844 24.890625 C 40.207031 25.347656 38.164062 26.308594 36.65625 27.398438 L 36.261719 32.226562 C 37.46875 31.140625 40.292969 29.679688 42.085938 29.695312 C 43.035156 29.707031 43.683594 30.144531 43.648438 31.285156 L 43.613281 32.148438 C 43.179688 31.921875 42.632812 31.792969 42.027344 31.757812 C 40.121094 31.660156 37.605469 32.519531 35.910156 34.335938 C 35.429688 34.851562 35.019531 35.4375 34.710938 36.101562 C 34.363281 36.824219 34.136719 37.648438 34.066406 38.476562 L 34.050781 39.242188 C 34.085938 40.367188 34.429688 41.460938 35.1875 42.300781 C 35.34375 42.476562 35.511719 42.632812 35.6875 42.773438 C 37.1875 43.980469 39.515625 44.160156 41.738281 42.828125 C 42.363281 42.445312 42.996094 41.945312 43.589844 41.308594 L 43.472656 42.632812 L 49.160156 41.121094 L 49.453125 29.980469 C 49.59375 24.917969 45.960938 24.027344 42.214844 24.890625 M 42.992188 38.351562 C 42.699219 38.558594 42.28125 38.757812 41.84375 38.859375 L 41.839844 38.859375 C 41.183594 39.011719 40.476562 38.957031 40.070312 38.457031 C 39.441406 37.667969 40.070312 36.492188 40.726562 35.960938 C 41.027344 35.71875 41.46875 35.496094 41.933594 35.390625 C 42.585938 35.234375 43.28125 35.304688 43.695312 35.824219 C 44.34375 36.644531 43.703125 37.832031 42.992188 38.351562 "/><path style=" stroke:none;fill-rule:nonzero;fill:#ffffff;fill-opacity:1;" d="M 60.925781 28.179688 L 63.382812 23.101562 C 59.28125 19.9375 52.574219 23.1875 52.191406 28.261719 C 52.003906 30.75 53.484375 32.097656 55.796875 32.914062 C 58.070312 33.71875 55.835938 36.839844 51.988281 35.042969 L 51.851562 40.320312 C 56.796875 41.757812 63.378906 38.382812 62.746094 32.851562 C 62.488281 30.597656 60.699219 29.617188 58.894531 28.746094 C 56.578125 27.632812 59.777344 25.5 60.925781 28.179688 "/><path style=" stroke:none;fill-rule:nonzero;fill:#ffffff;fill-opacity:1;" d="M 70.867188 21.644531 L 70.894531 20.214844 L 65.425781 21.585938 L 64.988281 38.246094 L 70.792969 36.824219 L 71.027344 27.640625 C 71.050781 26.875 71.1875 26.117188 71.585938 25.542969 C 72.03125 24.890625 73.09375 24.28125 73.867188 24.730469 C 74.535156 25.113281 74.503906 26.105469 74.484375 26.777344 L 74.230469 36.535156 L 80.0625 35.097656 L 80.339844 24.523438 C 80.535156 17.125 73.824219 18.410156 70.867188 21.644531 "/><path style=" stroke:none;fill-rule:nonzero;fill:#ffffff;fill-opacity:1;" d="M 90.027344 15.398438 L 90.023438 15.398438 C 88.019531 15.859375 85.984375 16.816406 84.46875 17.902344 L 84.082031 22.738281 C 85.285156 21.652344 88.113281 20.183594 89.902344 20.199219 C 90.847656 20.214844 91.507812 20.652344 91.460938 21.792969 L 91.429688 22.660156 C 90.996094 22.433594 90.457031 22.304688 89.84375 22.269531 C 87.410156 22.144531 83.957031 23.589844 82.527344 26.613281 C 82.1875 27.332031 81.960938 28.152344 81.890625 28.984375 L 81.867188 29.75 C 81.910156 30.875 82.253906 31.96875 83.011719 32.808594 C 84.460938 34.421875 87.074219 34.824219 89.550781 33.335938 L 89.550781 33.332031 C 90.1875 32.953125 90.808594 32.457031 91.40625 31.816406 L 91.289062 33.140625 L 96.980469 31.632812 L 97.269531 20.492188 C 97.410156 15.421875 93.777344 14.539062 90.027344 15.398438 M 90.808594 28.867188 C 90.519531 29.070312 90.101562 29.269531 89.664062 29.371094 L 89.660156 29.371094 C 88.996094 29.527344 88.296875 29.472656 87.886719 28.972656 C 87.257812 28.183594 87.894531 27.007812 88.542969 26.476562 C 88.847656 26.230469 89.289062 26.015625 89.75 25.902344 L 89.757812 25.902344 C 90.40625 25.746094 91.105469 25.816406 91.515625 26.339844 C 92.160156 27.160156 91.519531 28.347656 90.808594 28.867188 "/></g></svg>