<svg xmlns="http://www.w3.org/2000/svg" xmlns:xlink="http://www.w3.org/1999/xlink" width="150" zoomAndPan="magnify" viewBox="0 0 112.5 67.499998" height="90" preserveAspectRatio="xMidYMid meet" version="1.2"><defs><clipPath id="4fb44ed2d9"><path d="M 9.75 7.011719 L 102 7.011719 L 102 59.871094 L 9.75 59.871094 Z M 9.75 7.011719 "/></clipPath></defs><g id="b29ac5e1ee"><path style=" stroke:none;fill-rule:evenodd;fill:#2a3b68;fill-opacity:1;" d="M 55.882812 9.789062 C 79.820312 9.789062 99.222656 20.375 99.222656 33.433594 C 99.222656 46.488281 79.820312 57.074219 55.882812 57.074219 C 31.949219 57.074219 12.546875 46.488281 12.546875 33.433594 C 12.546875 20.375 31.949219 9.789062 55.882812 9.789062 Z M 55.882812 9.789062 "/><path style=" stroke:none;fill-rule:nonzero;fill:#fefefe;fill-opacity:1;" d="M 30.195312 24.636719 L 31.070312 23.378906 L 31.789062 23.378906 L 31.847656 28.625 L 31.207031 28.625 C 30.804688 27.015625 30.207031 25.847656 29.417969 25.105469 C 28.625 24.367188 27.71875 23.996094 26.691406 23.996094 C 25.832031 23.996094 25.128906 24.253906 24.582031 24.765625 C 24.035156 25.273438 23.761719 25.898438 23.761719 26.636719 C 23.761719 27.097656 23.863281 27.5 24.074219 27.84375 C 24.28125 28.191406 24.59375 28.472656 25.007812 28.691406 C 25.417969 28.90625 26.199219 29.140625 27.34375 29.386719 C 28.945312 29.742188 30.074219 30.09375 30.71875 30.453125 C 31.367188 30.808594 31.851562 31.257812 32.167969 31.800781 C 32.484375 32.34375 32.644531 32.972656 32.644531 33.703125 C 32.644531 35 32.210938 36.074219 31.335938 36.925781 C 30.460938 37.78125 29.332031 38.207031 27.945312 38.207031 C 26.457031 38.207031 25.164062 37.726562 24.066406 36.769531 L 22.964844 38.105469 L 22.265625 38.105469 L 22.265625 32.519531 L 22.964844 32.519531 C 23.234375 34.0625 23.847656 35.277344 24.796875 36.171875 C 25.746094 37.0625 26.8125 37.507812 28.003906 37.507812 C 28.964844 37.507812 29.746094 37.226562 30.355469 36.65625 C 30.964844 36.089844 31.269531 35.398438 31.269531 34.589844 C 31.269531 34.128906 31.15625 33.726562 30.925781 33.375 C 30.699219 33.03125 30.339844 32.738281 29.84375 32.5 C 29.351562 32.265625 28.378906 31.980469 26.929688 31.644531 C 25.339844 31.265625 24.253906 30.84375 23.679688 30.375 C 22.871094 29.714844 22.464844 28.777344 22.464844 27.5625 C 22.464844 26.296875 22.867188 25.261719 23.675781 24.453125 C 24.484375 23.644531 25.519531 23.238281 26.777344 23.238281 C 27.378906 23.238281 27.953125 23.34375 28.5 23.5625 C 29.046875 23.777344 29.609375 24.132812 30.195312 24.636719 Z M 40.507812 23.238281 L 41.1875 23.238281 L 46.351562 36.414062 C 46.554688 36.941406 46.980469 37.207031 47.625 37.207031 L 48.074219 37.207031 L 48.074219 37.945312 L 42.324219 37.945312 L 42.324219 37.207031 L 42.785156 37.207031 C 43.378906 37.207031 43.800781 37.144531 44.046875 37.015625 C 44.21875 36.921875 44.304688 36.78125 44.304688 36.597656 C 44.304688 36.488281 44.28125 36.371094 44.234375 36.246094 L 43.042969 33.195312 L 37.347656 33.195312 L 36.671875 34.945312 C 36.496094 35.414062 36.40625 35.78125 36.40625 36.054688 C 36.40625 36.371094 36.554688 36.644531 36.851562 36.867188 C 37.148438 37.09375 37.578125 37.207031 38.140625 37.207031 L 38.632812 37.207031 L 38.632812 37.945312 L 33.402344 37.945312 L 33.402344 37.207031 C 33.960938 37.207031 34.402344 37.085938 34.726562 36.84375 C 35.054688 36.601562 35.355469 36.140625 35.625 35.457031 Z M 40.238281 26.007812 L 37.667969 32.4375 L 42.746094 32.4375 Z M 48.894531 23.539062 L 55.0625 23.539062 L 55.0625 24.277344 L 53.925781 24.277344 C 53.53125 24.277344 53.269531 24.347656 53.148438 24.484375 C 53.027344 24.625 52.96875 24.964844 52.96875 25.503906 L 52.96875 29.945312 L 59.515625 29.945312 L 59.515625 25.503906 C 59.515625 24.945312 59.460938 24.601562 59.347656 24.472656 C 59.230469 24.34375 58.960938 24.277344 58.539062 24.277344 L 57.480469 24.277344 L 57.480469 23.539062 L 63.648438 23.539062 L 63.648438 24.277344 L 62.523438 24.277344 C 62.242188 24.277344 62.042969 24.3125 61.929688 24.382812 C 61.816406 24.457031 61.722656 24.578125 61.652344 24.753906 C 61.613281 24.863281 61.59375 25.152344 61.59375 25.621094 L 61.59375 35.972656 C 61.59375 36.472656 61.636719 36.773438 61.71875 36.878906 C 61.886719 37.097656 62.199219 37.207031 62.648438 37.207031 L 63.648438 37.207031 L 63.648438 37.945312 L 57.480469 37.945312 L 57.480469 37.207031 L 58.539062 37.207031 C 58.953125 37.207031 59.238281 37.09375 59.390625 36.867188 C 59.472656 36.746094 59.515625 36.421875 59.515625 35.898438 L 59.515625 30.902344 L 52.96875 30.902344 L 52.96875 35.972656 C 52.96875 36.480469 53.007812 36.78125 53.085938 36.890625 C 53.246094 37.101562 53.53125 37.207031 53.925781 37.207031 L 55.0625 37.207031 L 55.0625 37.945312 L 48.894531 37.945312 L 48.894531 37.207031 L 50.074219 37.207031 C 50.28125 37.207031 50.445312 37.164062 50.570312 37.082031 C 50.695312 37 50.785156 36.878906 50.839844 36.722656 C 50.875 36.617188 50.890625 36.34375 50.890625 35.894531 L 50.890625 25.503906 C 50.890625 24.964844 50.832031 24.625 50.710938 24.484375 C 50.59375 24.347656 50.328125 24.277344 49.925781 24.277344 L 48.894531 24.277344 Z M 71.554688 23.238281 L 72.230469 23.238281 L 77.394531 36.414062 C 77.601562 36.941406 78.027344 37.207031 78.671875 37.207031 L 79.121094 37.207031 L 79.121094 37.945312 L 73.371094 37.945312 L 73.371094 37.207031 L 73.828125 37.207031 C 74.425781 37.207031 74.847656 37.144531 75.09375 37.015625 C 75.261719 36.921875 75.351562 36.78125 75.351562 36.597656 C 75.351562 36.488281 75.328125 36.371094 75.28125 36.246094 L 74.089844 33.195312 L 68.394531 33.195312 L 67.71875 34.945312 C 67.539062 35.414062 67.449219 35.78125 67.449219 36.054688 C 67.449219 36.371094 67.601562 36.644531 67.898438 36.867188 C 68.191406 37.09375 68.621094 37.207031 69.1875 37.207031 L 69.675781 37.207031 L 69.675781 37.945312 L 64.445312 37.945312 L 64.445312 37.207031 C 65.003906 37.207031 65.449219 37.085938 65.773438 36.84375 C 66.101562 36.601562 66.398438 36.140625 66.671875 35.457031 Z M 71.285156 26.007812 L 68.714844 32.4375 L 73.792969 32.4375 Z M 83.117188 23.539062 L 89.503906 23.539062 L 89.503906 24.277344 L 88.597656 24.277344 C 88.242188 24.277344 87.984375 24.339844 87.835938 24.46875 C 87.683594 24.597656 87.605469 24.789062 87.605469 25.035156 L 87.605469 34.363281 C 87.605469 35.082031 87.429688 35.734375 87.082031 36.3125 C 86.730469 36.894531 86.214844 37.355469 85.539062 37.695312 C 84.863281 38.035156 84.097656 38.207031 83.246094 38.207031 C 82.085938 38.207031 81.140625 37.867188 80.402344 37.1875 C 79.667969 36.511719 79.300781 35.679688 79.300781 34.699219 C 79.300781 33.96875 79.488281 33.386719 79.859375 32.949219 C 80.226562 32.515625 80.679688 32.300781 81.21875 32.300781 C 81.65625 32.300781 82.023438 32.4375 82.308594 32.722656 C 82.59375 33.003906 82.734375 33.363281 82.734375 33.800781 C 82.734375 34.175781 82.621094 34.492188 82.386719 34.746094 C 82.152344 35.003906 81.886719 35.132812 81.582031 35.132812 C 81.464844 35.132812 81.304688 35.101562 81.097656 35.03125 C 80.921875 34.980469 80.804688 34.953125 80.75 34.953125 C 80.640625 34.953125 80.554688 35 80.488281 35.089844 C 80.417969 35.179688 80.378906 35.316406 80.378906 35.5 C 80.378906 35.984375 80.625 36.429688 81.117188 36.828125 C 81.605469 37.226562 82.203125 37.429688 82.914062 37.429688 C 83.726562 37.429688 84.367188 37.148438 84.832031 36.585938 C 85.296875 36.027344 85.53125 35.242188 85.53125 34.238281 L 85.53125 25.035156 C 85.53125 24.78125 85.445312 24.59375 85.269531 24.464844 C 85.101562 24.339844 84.804688 24.277344 84.394531 24.277344 L 83.117188 24.277344 Z M 83.117188 23.539062 "/><path style=" stroke:none;fill-rule:nonzero;fill:#fefefe;fill-opacity:1;" d="M 22.265625 39.585938 L 23.800781 39.585938 C 24.144531 39.585938 24.410156 39.664062 24.59375 39.824219 C 24.773438 39.980469 24.867188 40.183594 24.867188 40.4375 C 24.867188 40.691406 24.78125 40.886719 24.613281 41.019531 C 24.382812 41.203125 24.097656 41.292969 23.757812 41.292969 L 23.203125 41.292969 L 23.203125 42.351562 C 23.203125 42.414062 23.21875 42.457031 23.25 42.484375 C 23.289062 42.519531 23.339844 42.535156 23.40625 42.535156 L 23.757812 42.535156 L 23.757812 42.695312 L 22.265625 42.695312 L 22.265625 42.535156 L 22.578125 42.535156 C 22.640625 42.535156 22.683594 42.523438 22.714844 42.496094 C 22.742188 42.472656 22.757812 42.4375 22.757812 42.398438 L 22.757812 39.925781 C 22.757812 39.859375 22.738281 39.816406 22.703125 39.789062 C 22.664062 39.757812 22.597656 39.746094 22.496094 39.746094 L 22.265625 39.746094 Z M 23.203125 41.136719 L 23.625 41.136719 C 23.894531 41.136719 24.085938 41.082031 24.207031 40.96875 C 24.324219 40.859375 24.382812 40.675781 24.382812 40.417969 C 24.382812 40.238281 24.355469 40.101562 24.304688 40.003906 C 24.25 39.910156 24.171875 39.839844 24.070312 39.792969 C 23.964844 39.746094 23.796875 39.722656 23.5625 39.722656 C 23.40625 39.722656 23.308594 39.738281 23.265625 39.769531 C 23.226562 39.796875 23.203125 39.847656 23.203125 39.921875 Z M 25.085938 39.585938 L 26.515625 39.585938 L 26.515625 39.746094 L 26.230469 39.746094 C 26.152344 39.746094 26.101562 39.757812 26.070312 39.785156 C 26.039062 39.808594 26.023438 39.847656 26.023438 39.898438 L 26.023438 41.652344 C 26.023438 41.835938 26.039062 41.972656 26.070312 42.066406 C 26.121094 42.203125 26.207031 42.316406 26.332031 42.398438 C 26.460938 42.480469 26.625 42.519531 26.828125 42.519531 C 27.113281 42.519531 27.328125 42.449219 27.476562 42.300781 C 27.625 42.15625 27.699219 41.960938 27.699219 41.714844 L 27.699219 40.289062 C 27.699219 40.164062 27.691406 40.070312 27.671875 40.003906 C 27.65625 39.941406 27.628906 39.890625 27.597656 39.851562 C 27.5625 39.816406 27.523438 39.789062 27.472656 39.773438 C 27.421875 39.753906 27.339844 39.746094 27.21875 39.746094 L 27.21875 39.585938 L 28.390625 39.585938 L 28.390625 39.746094 L 28.308594 39.746094 C 28.175781 39.746094 28.078125 39.78125 28.015625 39.851562 C 27.949219 39.921875 27.917969 40.023438 27.917969 40.160156 L 27.917969 41.683594 C 27.917969 42.015625 27.824219 42.273438 27.632812 42.449219 C 27.417969 42.648438 27.132812 42.75 26.777344 42.75 C 26.46875 42.75 26.226562 42.707031 26.050781 42.617188 C 25.875 42.53125 25.746094 42.40625 25.667969 42.242188 C 25.605469 42.117188 25.574219 41.960938 25.574219 41.773438 L 25.574219 39.898438 C 25.574219 39.851562 25.558594 39.8125 25.527344 39.785156 C 25.496094 39.757812 25.445312 39.746094 25.378906 39.746094 L 25.085938 39.746094 Z M 28.589844 39.585938 L 30.195312 39.585938 C 30.507812 39.585938 30.746094 39.65625 30.917969 39.796875 C 31.089844 39.941406 31.175781 40.125 31.175781 40.355469 C 31.175781 40.492188 31.140625 40.613281 31.074219 40.722656 C 31.003906 40.828125 30.90625 40.914062 30.777344 40.976562 C 30.648438 41.042969 30.449219 41.085938 30.171875 41.117188 C 30.371094 41.171875 30.511719 41.222656 30.585938 41.277344 C 30.664062 41.328125 30.722656 41.398438 30.769531 41.480469 C 30.816406 41.5625 30.867188 41.730469 30.925781 41.988281 C 30.96875 42.171875 31.015625 42.296875 31.0625 42.367188 C 31.101562 42.417969 31.136719 42.445312 31.179688 42.445312 C 31.222656 42.445312 31.265625 42.410156 31.300781 42.347656 C 31.339844 42.285156 31.363281 42.171875 31.371094 42.007812 L 31.511719 42.007812 C 31.484375 42.484375 31.308594 42.722656 30.984375 42.722656 C 30.882812 42.722656 30.792969 42.699219 30.71875 42.644531 C 30.644531 42.59375 30.585938 42.519531 30.550781 42.417969 C 30.519531 42.339844 30.488281 42.144531 30.449219 41.824219 C 30.429688 41.636719 30.394531 41.503906 30.351562 41.425781 C 30.304688 41.347656 30.234375 41.285156 30.136719 41.238281 C 30.039062 41.1875 29.925781 41.164062 29.789062 41.164062 L 29.535156 41.164062 L 29.535156 42.386719 C 29.535156 42.4375 29.550781 42.472656 29.574219 42.492188 C 29.609375 42.519531 29.660156 42.535156 29.730469 42.535156 L 30.027344 42.535156 L 30.027344 42.695312 L 28.589844 42.695312 L 28.589844 42.535156 L 28.894531 42.535156 C 28.960938 42.535156 29.007812 42.519531 29.042969 42.492188 C 29.074219 42.46875 29.089844 42.433594 29.089844 42.386719 L 29.089844 39.90625 C 29.089844 39.851562 29.074219 39.8125 29.039062 39.785156 C 29.007812 39.757812 28.960938 39.746094 28.894531 39.746094 L 28.589844 39.746094 Z M 29.535156 41.015625 L 29.90625 41.015625 C 30.152344 41.015625 30.34375 40.96875 30.484375 40.875 C 30.625 40.78125 30.695312 40.617188 30.695312 40.378906 C 30.695312 40.21875 30.667969 40.085938 30.617188 39.992188 C 30.5625 39.898438 30.492188 39.832031 30.40625 39.796875 C 30.324219 39.761719 30.152344 39.746094 29.902344 39.746094 C 29.738281 39.746094 29.632812 39.757812 29.59375 39.78125 C 29.554688 39.804688 29.535156 39.84375 29.535156 39.898438 Z M 31.867188 39.585938 L 34.332031 39.585938 L 34.394531 40.636719 L 34.25 40.636719 C 34.195312 40.304688 34.105469 40.074219 33.984375 39.941406 C 33.863281 39.8125 33.707031 39.746094 33.511719 39.746094 L 32.902344 39.746094 C 32.851562 39.746094 32.816406 39.757812 32.789062 39.785156 C 32.765625 39.8125 32.753906 39.851562 32.753906 39.90625 L 32.753906 41.011719 L 33.019531 41.011719 C 33.160156 41.011719 33.277344 40.960938 33.367188 40.855469 C 33.453125 40.753906 33.503906 40.597656 33.511719 40.386719 L 33.65625 40.386719 L 33.65625 41.828125 L 33.511719 41.828125 C 33.503906 41.589844 33.453125 41.417969 33.363281 41.316406 C 33.273438 41.214844 33.152344 41.160156 32.996094 41.160156 L 32.753906 41.160156 L 32.753906 42.394531 C 32.753906 42.441406 32.769531 42.472656 32.796875 42.5 C 32.828125 42.523438 32.878906 42.535156 32.949219 42.535156 L 33.429688 42.535156 C 33.953125 42.535156 34.253906 42.203125 34.332031 41.535156 L 34.484375 41.535156 L 34.429688 42.695312 L 31.867188 42.695312 L 31.867188 42.535156 L 32.078125 42.535156 C 32.164062 42.535156 32.21875 42.519531 32.253906 42.492188 C 32.289062 42.460938 32.304688 42.421875 32.304688 42.367188 L 32.304688 39.90625 C 32.304688 39.851562 32.289062 39.8125 32.261719 39.785156 C 32.230469 39.757812 32.183594 39.746094 32.121094 39.746094 L 31.867188 39.746094 Z M 37.195312 40.597656 C 37.316406 40.597656 37.421875 40.640625 37.507812 40.726562 C 37.59375 40.816406 37.636719 40.917969 37.636719 41.039062 C 37.636719 41.164062 37.59375 41.265625 37.507812 41.351562 C 37.421875 41.441406 37.320312 41.484375 37.195312 41.484375 C 37.074219 41.484375 36.96875 41.441406 36.882812 41.351562 C 36.796875 41.265625 36.75 41.164062 36.75 41.039062 C 36.75 40.917969 36.796875 40.8125 36.882812 40.726562 C 36.96875 40.640625 37.074219 40.597656 37.195312 40.597656 Z M 39.871094 39.585938 L 40.613281 39.585938 L 42.492188 42.027344 L 42.492188 40.261719 C 42.492188 40.085938 42.453125 39.953125 42.371094 39.867188 C 42.296875 39.789062 42.1875 39.75 42.042969 39.746094 L 42.042969 39.585938 L 43.121094 39.585938 L 43.121094 39.746094 C 43.011719 39.746094 42.929688 39.761719 42.875 39.792969 C 42.820312 39.824219 42.773438 39.878906 42.730469 39.960938 C 42.691406 40.039062 42.671875 40.128906 42.671875 40.226562 L 42.671875 42.695312 L 42.476562 42.695312 L 40.53125 40.148438 L 40.53125 42.023438 C 40.53125 42.195312 40.574219 42.320312 40.660156 42.40625 C 40.746094 42.488281 40.875 42.53125 41.054688 42.535156 L 41.054688 42.695312 L 39.871094 42.695312 L 39.871094 42.535156 C 40.019531 42.527344 40.136719 42.480469 40.222656 42.386719 C 40.3125 42.296875 40.355469 42.183594 40.355469 42.050781 L 40.355469 39.949219 L 40.316406 39.910156 C 40.25 39.832031 40.203125 39.789062 40.171875 39.773438 C 40.132812 39.753906 40.078125 39.746094 40.015625 39.746094 L 39.871094 39.746094 Z M 44.707031 39.523438 L 44.851562 39.523438 L 45.964844 42.363281 C 46.011719 42.476562 46.101562 42.535156 46.242188 42.535156 L 46.335938 42.535156 L 46.335938 42.695312 L 45.097656 42.695312 L 45.097656 42.535156 L 45.195312 42.535156 C 45.324219 42.535156 45.417969 42.519531 45.46875 42.492188 C 45.507812 42.472656 45.523438 42.441406 45.523438 42.402344 C 45.523438 42.378906 45.519531 42.351562 45.507812 42.328125 L 45.253906 41.667969 L 44.023438 41.667969 L 43.878906 42.046875 C 43.839844 42.148438 43.820312 42.226562 43.820312 42.285156 C 43.820312 42.351562 43.851562 42.414062 43.917969 42.460938 C 43.980469 42.507812 44.074219 42.535156 44.195312 42.535156 L 44.300781 42.535156 L 44.300781 42.695312 L 43.171875 42.695312 L 43.171875 42.535156 C 43.292969 42.535156 43.390625 42.507812 43.460938 42.457031 C 43.53125 42.402344 43.59375 42.304688 43.652344 42.15625 Z M 44.648438 40.121094 L 44.09375 41.503906 L 45.1875 41.503906 Z M 46.507812 39.585938 L 49.027344 39.585938 L 49.089844 40.761719 L 48.941406 40.761719 C 48.847656 40.070312 48.597656 39.722656 48.195312 39.722656 C 48.113281 39.722656 48.058594 39.738281 48.027344 39.765625 C 47.996094 39.792969 47.980469 39.839844 47.980469 39.90625 L 47.980469 42.386719 C 47.980469 42.4375 47.996094 42.472656 48.027344 42.5 C 48.054688 42.523438 48.105469 42.535156 48.171875 42.535156 L 48.484375 42.535156 L 48.484375 42.695312 L 47.039062 42.695312 L 47.039062 42.535156 L 47.394531 42.535156 C 47.445312 42.535156 47.480469 42.523438 47.503906 42.5 C 47.53125 42.472656 47.542969 42.441406 47.542969 42.402344 L 47.542969 39.886719 C 47.542969 39.832031 47.527344 39.792969 47.496094 39.765625 C 47.464844 39.738281 47.414062 39.722656 47.339844 39.722656 C 47.140625 39.722656 46.972656 39.820312 46.835938 40.011719 C 46.726562 40.171875 46.644531 40.421875 46.597656 40.761719 L 46.4375 40.761719 Z M 49.300781 39.585938 L 50.730469 39.585938 L 50.730469 39.746094 L 50.445312 39.746094 C 50.367188 39.746094 50.3125 39.757812 50.285156 39.785156 C 50.253906 39.808594 50.238281 39.847656 50.238281 39.898438 L 50.238281 41.652344 C 50.238281 41.835938 50.253906 41.972656 50.285156 42.066406 C 50.335938 42.203125 50.421875 42.316406 50.546875 42.398438 C 50.675781 42.480469 50.839844 42.519531 51.042969 42.519531 C 51.328125 42.519531 51.542969 42.449219 51.691406 42.300781 C 51.839844 42.15625 51.914062 41.960938 51.914062 41.714844 L 51.914062 40.289062 C 51.914062 40.164062 51.902344 40.070312 51.886719 40.003906 C 51.867188 39.941406 51.84375 39.890625 51.8125 39.851562 C 51.777344 39.816406 51.738281 39.789062 51.6875 39.773438 C 51.636719 39.753906 51.550781 39.746094 51.433594 39.746094 L 51.433594 39.585938 L 52.605469 39.585938 L 52.605469 39.746094 L 52.523438 39.746094 C 52.390625 39.746094 52.292969 39.78125 52.226562 39.851562 C 52.164062 39.921875 52.132812 40.023438 52.132812 40.160156 L 52.132812 41.683594 C 52.132812 42.015625 52.035156 42.273438 51.847656 42.449219 C 51.632812 42.648438 51.347656 42.75 50.992188 42.75 C 50.683594 42.75 50.441406 42.707031 50.265625 42.617188 C 50.089844 42.53125 49.960938 42.40625 49.878906 42.242188 C 49.820312 42.117188 49.789062 41.960938 49.789062 41.773438 L 49.789062 39.898438 C 49.789062 39.851562 49.773438 39.8125 49.742188 39.785156 C 49.707031 39.757812 49.660156 39.746094 49.59375 39.746094 L 49.300781 39.746094 Z M 52.804688 39.585938 L 54.410156 39.585938 C 54.71875 39.585938 54.960938 39.65625 55.132812 39.796875 C 55.304688 39.941406 55.390625 40.125 55.390625 40.355469 C 55.390625 40.492188 55.355469 40.613281 55.289062 40.722656 C 55.21875 40.828125 55.121094 40.914062 54.992188 40.976562 C 54.863281 41.042969 54.660156 41.085938 54.386719 41.117188 C 54.585938 41.171875 54.726562 41.222656 54.800781 41.277344 C 54.878906 41.328125 54.9375 41.398438 54.984375 41.480469 C 55.03125 41.5625 55.082031 41.730469 55.140625 41.988281 C 55.183594 42.171875 55.230469 42.296875 55.277344 42.367188 C 55.3125 42.417969 55.351562 42.445312 55.394531 42.445312 C 55.4375 42.445312 55.480469 42.410156 55.515625 42.347656 C 55.554688 42.285156 55.574219 42.171875 55.585938 42.007812 L 55.726562 42.007812 C 55.699219 42.484375 55.523438 42.722656 55.199219 42.722656 C 55.097656 42.722656 55.007812 42.699219 54.933594 42.644531 C 54.859375 42.59375 54.800781 42.519531 54.765625 42.417969 C 54.734375 42.339844 54.703125 42.144531 54.664062 41.824219 C 54.644531 41.636719 54.609375 41.503906 54.566406 41.425781 C 54.519531 41.347656 54.449219 41.285156 54.351562 41.238281 C 54.253906 41.1875 54.140625 41.164062 54.003906 41.164062 L 53.75 41.164062 L 53.75 42.386719 C 53.75 42.4375 53.761719 42.472656 53.789062 42.492188 C 53.824219 42.519531 53.875 42.535156 53.945312 42.535156 L 54.242188 42.535156 L 54.242188 42.695312 L 52.804688 42.695312 L 52.804688 42.535156 L 53.109375 42.535156 C 53.175781 42.535156 53.222656 42.519531 53.253906 42.492188 C 53.285156 42.46875 53.304688 42.433594 53.304688 42.386719 L 53.304688 39.90625 C 53.304688 39.851562 53.285156 39.8125 53.253906 39.785156 C 53.222656 39.757812 53.171875 39.746094 53.109375 39.746094 L 52.804688 39.746094 Z M 53.75 41.015625 L 54.121094 41.015625 C 54.367188 41.015625 54.558594 40.96875 54.699219 40.875 C 54.839844 40.78125 54.910156 40.617188 54.910156 40.378906 C 54.910156 40.21875 54.882812 40.085938 54.828125 39.992188 C 54.777344 39.898438 54.707031 39.832031 54.621094 39.796875 C 54.535156 39.761719 54.367188 39.746094 54.117188 39.746094 C 53.953125 39.746094 53.847656 39.757812 53.808594 39.78125 C 53.769531 39.804688 53.75 39.84375 53.75 39.898438 Z M 57.300781 39.523438 L 57.449219 39.523438 L 58.5625 42.363281 C 58.605469 42.476562 58.699219 42.535156 58.835938 42.535156 L 58.933594 42.535156 L 58.933594 42.695312 L 57.695312 42.695312 L 57.695312 42.535156 L 57.792969 42.535156 C 57.921875 42.535156 58.011719 42.519531 58.066406 42.492188 C 58.101562 42.472656 58.121094 42.441406 58.121094 42.402344 C 58.121094 42.378906 58.117188 42.351562 58.105469 42.328125 L 57.847656 41.667969 L 56.621094 41.667969 L 56.476562 42.046875 C 56.4375 42.148438 56.417969 42.226562 56.417969 42.285156 C 56.417969 42.351562 56.449219 42.414062 56.515625 42.460938 C 56.578125 42.507812 56.671875 42.535156 56.792969 42.535156 L 56.898438 42.535156 L 56.898438 42.695312 L 55.769531 42.695312 L 55.769531 42.535156 C 55.890625 42.535156 55.984375 42.507812 56.054688 42.457031 C 56.125 42.402344 56.191406 42.304688 56.25 42.15625 Z M 57.246094 40.121094 L 56.691406 41.503906 L 57.785156 41.503906 Z M 59.042969 39.585938 L 60.484375 39.585938 L 60.484375 39.746094 L 60.140625 39.746094 C 60.085938 39.746094 60.046875 39.761719 60.019531 39.789062 C 59.992188 39.816406 59.980469 39.863281 59.980469 39.925781 L 59.980469 42.371094 C 59.980469 42.433594 59.996094 42.472656 60.03125 42.496094 C 60.0625 42.523438 60.128906 42.535156 60.226562 42.535156 L 60.664062 42.535156 C 60.898438 42.535156 61.085938 42.457031 61.234375 42.300781 C 61.382812 42.148438 61.488281 41.878906 61.554688 41.496094 L 61.703125 41.496094 L 61.628906 42.695312 L 59.042969 42.695312 L 59.042969 42.535156 L 59.296875 42.535156 C 59.382812 42.535156 59.445312 42.519531 59.480469 42.484375 C 59.515625 42.453125 59.535156 42.398438 59.535156 42.324219 L 59.535156 39.902344 C 59.535156 39.851562 59.519531 39.8125 59.488281 39.785156 C 59.460938 39.757812 59.417969 39.746094 59.359375 39.746094 L 59.042969 39.746094 Z M 64.28125 40.597656 C 64.402344 40.597656 64.507812 40.640625 64.59375 40.726562 C 64.679688 40.816406 64.722656 40.917969 64.722656 41.039062 C 64.722656 41.164062 64.679688 41.265625 64.59375 41.351562 C 64.507812 41.441406 64.402344 41.484375 64.28125 41.484375 C 64.160156 41.484375 64.054688 41.441406 63.96875 41.351562 C 63.878906 41.265625 63.835938 41.164062 63.835938 41.039062 C 63.835938 40.917969 63.878906 40.8125 63.96875 40.726562 C 64.054688 40.640625 64.160156 40.597656 64.28125 40.597656 Z M 68.429688 39.523438 C 68.691406 39.523438 68.9375 39.589844 69.164062 39.726562 C 69.394531 39.867188 69.574219 40.058594 69.703125 40.304688 C 69.832031 40.554688 69.898438 40.832031 69.898438 41.140625 C 69.898438 41.449219 69.832031 41.730469 69.703125 41.980469 C 69.570312 42.230469 69.390625 42.421875 69.164062 42.5625 C 68.9375 42.703125 68.695312 42.769531 68.441406 42.769531 C 68.191406 42.769531 67.957031 42.703125 67.738281 42.566406 C 67.519531 42.429688 67.34375 42.234375 67.210938 41.980469 C 67.078125 41.726562 67.011719 41.445312 67.011719 41.136719 C 67.011719 40.828125 67.078125 40.554688 67.207031 40.308594 C 67.332031 40.0625 67.507812 39.871094 67.730469 39.730469 C 67.957031 39.589844 68.1875 39.523438 68.429688 39.523438 Z M 68.460938 39.683594 C 68.1875 39.683594 67.96875 39.796875 67.796875 40.023438 C 67.628906 40.253906 67.542969 40.621094 67.542969 41.136719 C 67.542969 41.691406 67.628906 42.074219 67.804688 42.289062 C 67.976562 42.5 68.191406 42.605469 68.449219 42.605469 C 68.628906 42.605469 68.785156 42.558594 68.921875 42.460938 C 69.058594 42.367188 69.167969 42.210938 69.246094 42.003906 C 69.328125 41.792969 69.367188 41.515625 69.367188 41.175781 C 69.367188 40.800781 69.328125 40.511719 69.253906 40.300781 C 69.179688 40.09375 69.070312 39.9375 68.929688 39.835938 C 68.789062 39.734375 68.632812 39.683594 68.460938 39.683594 Z M 70.242188 39.585938 L 71.847656 39.585938 C 72.15625 39.585938 72.398438 39.65625 72.570312 39.796875 C 72.742188 39.941406 72.828125 40.125 72.828125 40.355469 C 72.828125 40.492188 72.792969 40.613281 72.726562 40.722656 C 72.65625 40.828125 72.558594 40.914062 72.429688 40.976562 C 72.300781 41.042969 72.097656 41.085938 71.824219 41.117188 C 72.023438 41.171875 72.164062 41.222656 72.238281 41.277344 C 72.316406 41.328125 72.375 41.398438 72.421875 41.480469 C 72.46875 41.5625 72.519531 41.730469 72.578125 41.988281 C 72.621094 42.171875 72.667969 42.296875 72.714844 42.367188 C 72.75 42.417969 72.789062 42.445312 72.832031 42.445312 C 72.875 42.445312 72.917969 42.410156 72.953125 42.347656 C 72.992188 42.285156 73.011719 42.171875 73.023438 42.007812 L 73.164062 42.007812 C 73.136719 42.484375 72.960938 42.722656 72.636719 42.722656 C 72.535156 42.722656 72.445312 42.699219 72.371094 42.644531 C 72.296875 42.59375 72.238281 42.519531 72.203125 42.417969 C 72.171875 42.339844 72.140625 42.144531 72.101562 41.824219 C 72.082031 41.636719 72.046875 41.503906 72.003906 41.425781 C 71.957031 41.347656 71.886719 41.285156 71.789062 41.238281 C 71.691406 41.1875 71.578125 41.164062 71.441406 41.164062 L 71.1875 41.164062 L 71.1875 42.386719 C 71.1875 42.4375 71.199219 42.472656 71.226562 42.492188 C 71.261719 42.519531 71.3125 42.535156 71.382812 42.535156 L 71.679688 42.535156 L 71.679688 42.695312 L 70.242188 42.695312 L 70.242188 42.535156 L 70.546875 42.535156 C 70.613281 42.535156 70.660156 42.519531 70.691406 42.492188 C 70.722656 42.46875 70.742188 42.433594 70.742188 42.386719 L 70.742188 39.90625 C 70.742188 39.851562 70.722656 39.8125 70.691406 39.785156 C 70.660156 39.757812 70.609375 39.746094 70.546875 39.746094 L 70.242188 39.746094 Z M 71.1875 41.015625 L 71.558594 41.015625 C 71.804688 41.015625 71.996094 40.96875 72.136719 40.875 C 72.277344 40.78125 72.347656 40.617188 72.347656 40.378906 C 72.347656 40.21875 72.320312 40.085938 72.265625 39.992188 C 72.214844 39.898438 72.144531 39.832031 72.058594 39.796875 C 71.972656 39.761719 71.804688 39.746094 71.554688 39.746094 C 71.390625 39.746094 71.285156 39.757812 71.246094 39.78125 C 71.207031 39.804688 71.1875 39.84375 71.1875 39.898438 Z M 73.398438 39.585938 L 74.832031 39.585938 L 74.832031 39.746094 L 74.585938 39.746094 C 74.476562 39.746094 74.40625 39.757812 74.378906 39.785156 C 74.351562 39.8125 74.335938 39.871094 74.335938 39.960938 L 74.335938 42.308594 C 74.335938 42.402344 74.347656 42.460938 74.375 42.484375 C 74.40625 42.519531 74.46875 42.535156 74.554688 42.535156 L 74.832031 42.535156 L 74.832031 42.695312 L 73.398438 42.695312 L 73.398438 42.535156 L 73.667969 42.535156 C 73.765625 42.535156 73.824219 42.519531 73.855469 42.492188 C 73.882812 42.464844 73.894531 42.402344 73.894531 42.308594 L 73.894531 39.960938 C 73.894531 39.871094 73.882812 39.816406 73.859375 39.792969 C 73.820312 39.761719 73.746094 39.746094 73.640625 39.746094 L 73.398438 39.746094 Z M 77.410156 39.832031 L 77.582031 39.523438 L 77.722656 39.523438 L 77.800781 40.761719 L 77.664062 40.761719 C 77.558594 40.40625 77.433594 40.148438 77.292969 39.988281 C 77.109375 39.785156 76.902344 39.683594 76.667969 39.683594 C 76.488281 39.683594 76.324219 39.734375 76.183594 39.839844 C 76.039062 39.941406 75.929688 40.09375 75.855469 40.296875 C 75.777344 40.5 75.738281 40.785156 75.738281 41.15625 C 75.738281 41.511719 75.777344 41.792969 75.855469 41.996094 C 75.929688 42.199219 76.035156 42.347656 76.171875 42.441406 C 76.304688 42.539062 76.460938 42.585938 76.640625 42.585938 C 76.886719 42.585938 77.074219 42.519531 77.210938 42.382812 C 77.34375 42.246094 77.410156 42.070312 77.410156 41.855469 L 77.410156 41.5625 C 77.410156 41.519531 77.390625 41.480469 77.355469 41.457031 C 77.320312 41.433594 77.261719 41.417969 77.179688 41.417969 L 76.917969 41.417969 L 76.917969 41.273438 L 78.222656 41.273438 L 78.222656 41.417969 L 78.046875 41.417969 C 77.96875 41.417969 77.910156 41.433594 77.878906 41.460938 C 77.84375 41.488281 77.828125 41.527344 77.828125 41.578125 L 77.828125 42.761719 L 77.6875 42.761719 C 77.636719 42.578125 77.585938 42.402344 77.53125 42.234375 C 77.425781 42.40625 77.300781 42.535156 77.15625 42.621094 C 77.011719 42.707031 76.847656 42.75 76.664062 42.75 C 76.402344 42.75 76.15625 42.683594 75.933594 42.546875 C 75.710938 42.414062 75.535156 42.222656 75.40625 41.980469 C 75.273438 41.734375 75.210938 41.460938 75.210938 41.152344 C 75.210938 40.84375 75.277344 40.566406 75.40625 40.320312 C 75.535156 40.078125 75.714844 39.882812 75.941406 39.738281 C 76.167969 39.59375 76.394531 39.523438 76.625 39.523438 C 76.757812 39.523438 76.882812 39.542969 77.003906 39.589844 C 77.121094 39.632812 77.257812 39.714844 77.410156 39.832031 Z M 78.5 39.585938 L 79.929688 39.585938 L 79.929688 39.746094 L 79.6875 39.746094 C 79.578125 39.746094 79.507812 39.757812 79.480469 39.785156 C 79.449219 39.8125 79.4375 39.871094 79.4375 39.960938 L 79.4375 42.308594 C 79.4375 42.402344 79.449219 42.460938 79.476562 42.484375 C 79.507812 42.519531 79.570312 42.535156 79.65625 42.535156 L 79.929688 42.535156 L 79.929688 42.695312 L 78.5 42.695312 L 78.5 42.535156 L 78.769531 42.535156 C 78.867188 42.535156 78.925781 42.519531 78.957031 42.492188 C 78.984375 42.464844 78.996094 42.402344 78.996094 42.308594 L 78.996094 39.960938 C 78.996094 39.871094 78.984375 39.816406 78.960938 39.792969 C 78.921875 39.761719 78.847656 39.746094 78.742188 39.746094 L 78.5 39.746094 Z M 80.269531 39.585938 L 81.007812 39.585938 L 82.890625 42.027344 L 82.890625 40.261719 C 82.890625 40.085938 82.847656 39.953125 82.769531 39.867188 C 82.695312 39.789062 82.585938 39.75 82.4375 39.746094 L 82.4375 39.585938 L 83.519531 39.585938 L 83.519531 39.746094 C 83.40625 39.746094 83.324219 39.761719 83.269531 39.792969 C 83.214844 39.824219 83.167969 39.878906 83.128906 39.960938 C 83.085938 40.039062 83.066406 40.128906 83.066406 40.226562 L 83.066406 42.695312 L 82.871094 42.695312 L 80.925781 40.148438 L 80.925781 42.023438 C 80.925781 42.195312 80.96875 42.320312 81.054688 42.40625 C 81.140625 42.488281 81.273438 42.53125 81.453125 42.535156 L 81.453125 42.695312 L 80.269531 42.695312 L 80.269531 42.535156 C 80.417969 42.527344 80.535156 42.480469 80.621094 42.386719 C 80.707031 42.296875 80.75 42.183594 80.75 42.050781 L 80.75 39.949219 L 80.714844 39.910156 C 80.648438 39.832031 80.601562 39.789062 80.570312 39.773438 C 80.527344 39.753906 80.476562 39.746094 80.410156 39.746094 L 80.269531 39.746094 Z M 85.101562 39.523438 L 85.25 39.523438 L 86.363281 42.363281 C 86.40625 42.476562 86.5 42.535156 86.636719 42.535156 L 86.734375 42.535156 L 86.734375 42.695312 L 85.492188 42.695312 L 85.492188 42.535156 L 85.59375 42.535156 C 85.722656 42.535156 85.8125 42.519531 85.867188 42.492188 C 85.902344 42.472656 85.921875 42.441406 85.921875 42.402344 C 85.921875 42.378906 85.914062 42.351562 85.90625 42.328125 L 85.648438 41.667969 L 84.421875 41.667969 L 84.273438 42.046875 C 84.238281 42.148438 84.21875 42.226562 84.21875 42.285156 C 84.21875 42.351562 84.25 42.414062 84.3125 42.460938 C 84.378906 42.507812 84.46875 42.535156 84.59375 42.535156 L 84.699219 42.535156 L 84.699219 42.695312 L 83.570312 42.695312 L 83.570312 42.535156 C 83.691406 42.535156 83.785156 42.507812 83.855469 42.457031 C 83.925781 42.402344 83.992188 42.304688 84.050781 42.15625 Z M 85.042969 40.121094 L 84.492188 41.503906 L 85.585938 41.503906 Z M 86.84375 39.585938 L 88.285156 39.585938 L 88.285156 39.746094 L 87.941406 39.746094 C 87.886719 39.746094 87.84375 39.761719 87.820312 39.789062 C 87.792969 39.816406 87.78125 39.863281 87.78125 39.925781 L 87.78125 42.371094 C 87.78125 42.433594 87.796875 42.472656 87.828125 42.496094 C 87.863281 42.523438 87.929688 42.535156 88.027344 42.535156 L 88.464844 42.535156 C 88.695312 42.535156 88.886719 42.457031 89.035156 42.300781 C 89.183594 42.148438 89.289062 41.878906 89.355469 41.496094 L 89.503906 41.496094 L 89.429688 42.695312 L 86.84375 42.695312 L 86.84375 42.535156 L 87.097656 42.535156 C 87.183594 42.535156 87.246094 42.519531 87.28125 42.484375 C 87.316406 42.453125 87.332031 42.398438 87.332031 42.324219 L 87.332031 39.902344 C 87.332031 39.851562 87.316406 39.8125 87.289062 39.785156 C 87.257812 39.757812 87.214844 39.746094 87.15625 39.746094 L 86.84375 39.746094 Z M 86.84375 39.585938 "/><g clip-rule="nonzero" clip-path="url(#4fb44ed2d9)"><path style=" stroke:none;fill-rule:nonzero;fill:#2a3b68;fill-opacity:1;" d="M 55.882812 7.015625 C 68.566406 7.015625 80.058594 9.945312 88.386719 14.675781 C 96.796875 19.453125 101.996094 26.085938 101.996094 33.433594 C 101.996094 40.78125 96.796875 47.410156 88.386719 52.191406 C 80.058594 56.921875 68.566406 59.847656 55.882812 59.847656 C 43.203125 59.847656 31.710938 56.921875 23.382812 52.191406 C 14.972656 47.410156 9.773438 40.78125 9.773438 33.433594 C 9.773438 26.085938 14.972656 19.453125 23.382812 14.675781 C 31.710938 9.945312 43.203125 7.015625 55.882812 7.015625 Z M 87.90625 15.519531 C 79.71875 10.867188 68.398438 7.992188 55.882812 7.992188 C 43.371094 7.992188 32.046875 10.867188 23.863281 15.519531 C 15.757812 20.125 10.746094 26.460938 10.746094 33.433594 C 10.746094 40.40625 15.757812 46.738281 23.863281 51.34375 C 32.046875 55.996094 43.371094 58.875 55.882812 58.875 C 68.398438 58.875 79.71875 55.996094 87.90625 51.34375 C 96.007812 46.738281 101.023438 40.40625 101.023438 33.433594 C 101.023438 26.460938 96.007812 20.125 87.90625 15.519531 Z M 87.90625 15.519531 "/></g><path style=" stroke:none;fill-rule:nonzero;fill:#2a3b68;fill-opacity:1;" d="M 90.867188 14.5625 L 90.867188 10.40625 L 89.386719 10.40625 L 89.386719 9.5625 L 93.355469 9.5625 L 93.355469 10.40625 L 91.882812 10.40625 L 91.882812 14.5625 Z M 93.996094 14.5625 L 93.996094 9.5625 L 95.511719 9.5625 L 96.410156 12.972656 L 97.296875 9.5625 L 98.816406 9.5625 L 98.816406 14.5625 L 97.878906 14.5625 L 97.875 10.625 L 96.890625 14.5625 L 95.917969 14.5625 L 94.9375 10.625 L 94.933594 14.5625 Z M 93.996094 14.5625 "/></g></svg>