<?xml version="1.0" encoding="UTF-8"?>
<svg id="Layer_1" xmlns="http://www.w3.org/2000/svg" version="1.1" viewBox="0 0 291.1 80">
  <!-- Generator: Adobe Illustrator 29.5.1, SVG Export Plug-In . SVG Version: 2.1.0 Build 141)  -->
  <defs>
    <style>
      .st0 {
        fill: #010101;
      }

      .st1 {
        fill: #fff;
      }
    </style>
  </defs>
  <path class="st0" d="M91.3,6.1c-5.3-5.3-13.1-7.3-20.1-5.3l-26.5,7C30.4,11.7-5.8,18.7.8,35c7,17,29.1,35.9,45.9,42.2,24.8,9.7,37.9-7.5,43.4-25.5,0-.5,0-.7.2-1.2h0v-.5c.2-1.2.7-2.4,1-3.6l5.1-20.1c1.9-7.3,0-14.8-5.3-20.1h.2ZM188.4,7.5h9.7v51h-9.7V7.5ZM234.1,35c1,2.2,1.2,4.4,1.2,6.8v3.9h-22.8c0,.2.2.5.5.7.5.7,1,1.2,1.5,1.7.7.5,1.5,1,2.4,1.5,1,.2,1.9.5,3.2.5s2.7,0,3.9-.7c1.5-.5,2.7-1.2,3.9-2.2l.7-.7,4.9,7.5-.7.5c-1.5,1.2-3.2,2.2-5.3,3.2-2.2,1-4.9,1.5-7.8,1.5s-4.9-.5-6.8-1.2-3.9-2.2-5.6-3.6c-1.5-1.5-2.9-3.4-3.6-5.6-1-2.2-1.5-4.4-1.5-6.8s.5-4.6,1.2-6.6c.7-1.9,1.9-3.9,3.4-5.3,1.5-1.5,3.2-2.7,5.1-3.6,1.9-1,4.1-1.5,6.6-1.5s4.4.5,6.3,1.2c1.9,1,3.9,1.9,5.3,3.4s2.7,3.2,3.6,5.3h0l.5.2ZM226.5,38.1c0-.2,0-.5-.2-1-.2-.7-.7-1.2-1.2-1.7s-1.2-1-2.2-1.5-1.9-.5-2.9-.5-2.2,0-2.9.5c-.7.2-1.5.7-1.9,1.5-.5.5-1,1.2-1.2,1.7,0,.2-.2.7-.2,1h13.1-.2ZM290.4,43.9c-.7-1.2-1.5-2.2-2.7-2.9-1-.7-2.2-1.2-3.6-1.7-1-.2-2.4-.7-4.1-1.2h0c-2.7-.5-4.4-1-5.6-1.5s-1.2-1-1.2-1c0-.5,0-1,1.2-1.5,1-.5,2.2-.7,3.4-.7s2.9.2,4.1.7c1.2.5,2.2,1.2,3.2,1.7l.7.5,4.9-7.3-.7-.5c-1.2-1-2.9-1.7-4.9-2.7-2.2-1-4.6-1.2-7.3-1.2s-4.1.2-5.8.7c-1.7.5-3.2,1.5-4.4,2.4s-2.2,2.2-2.9,3.4c-.7,1.5-1,2.7-1,4.1s.5,2.9,1.2,4.1,1.7,2.2,2.9,2.9c1.2.7,2.4,1.5,3.9,1.9,1.2.5,2.7,1,4.4,1.2.5,0,1.2.2,2.4.5.7,0,1.5.2,1.9.5.5,0,.7.2,1,.5h0v.7c0,.5,0,1-1.2,1.5-1,.5-2.2.7-3.4.7s-1.9,0-2.9-.5c-1-.2-1.7-.5-2.4-1-.7-.5-1.5-1-1.9-1.5-.5-.5-1.2-1-1.7-1.5l-.7-.7-5.6,7,.5.5c.7.7,1.5,1.5,2.4,2.2s2.2,1.5,3.4,1.9c1.5.5,2.7,1,4.1,1.2s3.2.5,4.9.5,3.6,0,5.3-.7c1.7-.5,3.2-1.2,4.6-1.9,1.5-1,2.4-2.2,3.2-3.4.7-1.5,1.2-2.9,1.2-4.9s-.2-2.9-1-4.1h0l.2.7ZM264.2,26.7l-.7-.5c-1.9-1.2-4.1-1.7-6.6-1.7s-3.6.2-5.3,1.2c-.5.2-1.2.7-1.9,1.5v-1.7h-9.7v32.8h9.7v-15.8c0-2.2,0-5.1,1.9-7,1.2-1.2,2.7-1.5,4.1-1.5s1.9,0,3.4,1l1,.5,3.9-8.7h.2ZM183.8,41.5c0,4.6-1.7,8.5-4.9,11.9-3.2,3.2-7,4.9-11.7,4.9s-5.6-.7-8-2.4v16.7h-9.2V25.5h9.2v1.5c2.4-1.5,4.9-2.2,7.8-2.2,4.6,0,8.5,1.7,11.7,4.9,3.2,3.2,4.9,7.3,4.9,11.7h0l.2.2ZM174.3,41.5c0-4.4-3.6-8-8-8s-8,3.6-8,8,3.6,8,8,8,8-3.6,8-8ZM136.2,25.5v15.8c0,4.6-3.6,8.3-8.3,8.3s-8.3-3.6-8.3-8.3v-15.8h-9.5v15.8c0,9.7,8,17.7,17.7,17.7s17.7-8,17.7-17.7v-15.8s-9.5,0-9.5,0Z"/>
  <path class="st1" d="M80.2,21.9l-6.6,25.7c-.5,1.7-1.9,2.9-3.9,2.9s-3.4-1.5-3.6-3.2l-2.2-10.7c0-.7-.5-1.5-1-1.9s-1.2-1-1.9-1l-10.7-2.2c-.7,0-1.5-.5-1.9-1-.7-.7-1.2-1.5-1.2-2.7s1.2-3.4,2.9-3.9l25.5-6.6c1.2-.2,2.7,0,3.6,1s1.2,2.4,1,3.6h0v-.2Z"/>
</svg>