<svg xmlns="http://www.w3.org/2000/svg" xmlns:xlink="http://www.w3.org/1999/xlink" width="150" zoomAndPan="magnify" viewBox="0 0 112.5 67.499998" height="90" preserveAspectRatio="xMidYMid meet" version="1.2"><defs><clipPath id="8f8b8ab75e"><path d="M 29.199219 6.699219 L 82.804688 6.699219 L 82.804688 60.304688 L 29.199219 60.304688 Z M 29.199219 6.699219 "/></clipPath></defs><g id="5f42749615"><g clip-rule="nonzero" clip-path="url(#8f8b8ab75e)"><path style=" stroke:none;fill-rule:nonzero;fill:#001e50;fill-opacity:1;" d="M 56 57.175781 C 43.046875 57.175781 32.4375 46.457031 32.4375 33.5 C 32.4375 30.820312 32.886719 28.253906 33.777344 25.796875 L 47.515625 52.597656 C 47.738281 52.933594 47.851562 53.269531 48.40625 53.269531 C 48.855469 53.269531 49.078125 52.933594 49.300781 52.597656 L 55.667969 38.304688 C 55.777344 38.082031 55.890625 37.96875 56 37.96875 C 56.226562 37.96875 56.226562 38.191406 56.335938 38.304688 L 62.8125 52.597656 C 63.039062 52.933594 63.148438 53.269531 63.707031 53.269531 C 64.152344 53.269531 64.378906 52.933594 64.601562 52.597656 L 78.335938 25.796875 C 79.230469 28.140625 79.675781 30.820312 79.675781 33.5 C 79.566406 46.457031 68.957031 57.175781 56 57.175781 Z M 56 27.359375 C 55.777344 27.359375 55.777344 27.136719 55.667969 27.023438 L 48.296875 11.167969 C 53.210938 9.378906 58.683594 9.378906 63.59375 11.167969 L 56.226562 27.023438 C 56.226562 27.136719 56.226562 27.359375 56 27.359375 Z M 48.296875 44.558594 C 48.074219 44.558594 48.074219 44.335938 47.960938 44.222656 L 35.902344 21.105469 C 38.023438 17.644531 41.039062 14.742188 44.609375 12.730469 L 53.097656 31.15625 C 53.320312 31.492188 53.433594 31.601562 53.769531 31.601562 L 58.234375 31.601562 C 58.570312 31.601562 58.683594 31.492188 58.90625 31.15625 L 67.28125 12.730469 C 70.855469 14.742188 73.871094 17.644531 75.992188 21.105469 L 64.042969 44.335938 C 63.929688 44.558594 63.820312 44.667969 63.707031 44.667969 C 63.484375 44.667969 63.484375 44.445312 63.371094 44.335938 L 58.792969 34.171875 C 58.570312 33.835938 58.457031 33.726562 58.125 33.726562 L 53.769531 33.726562 C 53.433594 33.726562 53.320312 33.835938 53.097656 34.171875 L 48.519531 44.335938 C 48.40625 44.445312 48.40625 44.558594 48.296875 44.558594 Z M 56 60.304688 C 70.855469 60.304688 82.804688 48.355469 82.804688 33.5 C 82.804688 18.648438 70.855469 6.699219 56 6.699219 C 41.148438 6.699219 29.199219 18.648438 29.199219 33.5 C 29.199219 48.355469 41.148438 60.304688 56 60.304688 Z M 56 60.304688 "/></g></g></svg>