<svg xmlns="http://www.w3.org/2000/svg" xmlns:xlink="http://www.w3.org/1999/xlink" width="150" zoomAndPan="magnify" viewBox="0 0 112.5 67.499998" height="90" preserveAspectRatio="xMidYMid meet" version="1.2"><defs><clipPath id="79139ad1e8"><path d="M 102 29 L 111.839844 29 L 111.839844 41 L 102 41 Z M 102 29 "/></clipPath><clipPath id="282753a6f3"><path d="M 45 30 L 55 30 L 55 44.484375 L 45 44.484375 Z M 45 30 "/></clipPath><clipPath id="74a7c944f4"><path d="M 0.164062 25 L 19 25 L 19 41 L 0.164062 41 Z M 0.164062 25 "/></clipPath><clipPath id="10df799d43"><path d="M 75 22.894531 L 83 22.894531 L 83 31 L 75 31 Z M 75 22.894531 "/></clipPath></defs><g id="974422cb62"><path style=" stroke:none;fill-rule:nonzero;fill:#909294;fill-opacity:1;" d="M 89.476562 33.132812 C 89.382812 32.84375 89.261719 32.574219 89.109375 32.335938 C 88.957031 32.09375 88.773438 31.898438 88.558594 31.730469 C 88.34375 31.566406 88.097656 31.441406 87.824219 31.347656 C 87.546875 31.265625 87.253906 31.214844 86.925781 31.214844 C 86.375 31.214844 85.875 31.359375 85.4375 31.648438 C 85 31.941406 84.640625 32.363281 84.386719 32.914062 C 84.132812 33.464844 84 34.148438 84 34.957031 C 84 35.769531 84.132812 36.453125 84.386719 37.011719 C 84.640625 37.574219 85 38 85.449219 38.277344 C 85.894531 38.570312 86.40625 38.714844 86.988281 38.714844 C 87.519531 38.714844 87.988281 38.601562 88.382812 38.382812 C 88.78125 38.164062 89.085938 37.851562 89.3125 37.449219 C 89.527344 37.042969 89.636719 36.566406 89.636719 36.015625 L 90.027344 36.089844 L 87.222656 36.089844 L 87.222656 34.84375 L 91.074219 34.84375 L 91.074219 35.976562 C 91.074219 36.816406 90.902344 37.542969 90.554688 38.15625 C 90.210938 38.765625 89.730469 39.242188 89.109375 39.574219 C 88.496094 39.90625 87.792969 40.074219 86.996094 40.074219 C 86.109375 40.074219 85.335938 39.867188 84.664062 39.453125 C 83.988281 39.035156 83.46875 38.445312 83.101562 37.675781 C 82.726562 36.910156 82.542969 36.007812 82.542969 34.957031 C 82.542969 34.160156 82.652344 33.453125 82.867188 32.820312 C 83.082031 32.1875 83.386719 31.648438 83.785156 31.203125 C 84.183594 30.757812 84.640625 30.425781 85.183594 30.1875 C 85.714844 29.949219 86.304688 29.832031 86.9375 29.832031 C 87.464844 29.832031 87.957031 29.917969 88.414062 30.074219 C 88.875 30.226562 89.28125 30.457031 89.636719 30.746094 C 89.996094 31.039062 90.289062 31.390625 90.535156 31.785156 C 90.769531 32.1875 90.933594 32.625 91.015625 33.113281 L 89.496094 33.113281 Z M 89.476562 33.132812 "/><path style=" stroke:none;fill-rule:nonzero;fill:#909294;fill-opacity:1;" d="M 101.199219 33.226562 L 99.710938 33.226562 C 99.652344 32.90625 99.550781 32.613281 99.394531 32.363281 C 99.242188 32.117188 99.050781 31.910156 98.824219 31.730469 C 98.601562 31.554688 98.347656 31.429688 98.070312 31.339844 C 97.796875 31.253906 97.5 31.203125 97.183594 31.203125 C 96.621094 31.203125 96.113281 31.347656 95.675781 31.640625 C 95.234375 31.929688 94.878906 32.355469 94.625 32.90625 C 94.371094 33.464844 94.238281 34.140625 94.238281 34.949219 C 94.238281 35.757812 94.371094 36.441406 94.625 37.003906 C 94.878906 37.5625 95.234375 37.976562 95.675781 38.269531 C 96.121094 38.558594 96.621094 38.695312 97.183594 38.695312 C 97.488281 38.695312 97.785156 38.652344 98.070312 38.570312 C 98.355469 38.488281 98.601562 38.351562 98.824219 38.183594 C 99.050781 38.019531 99.242188 37.8125 99.40625 37.5625 C 99.558594 37.3125 99.671875 37.035156 99.730469 36.722656 L 101.222656 36.722656 C 101.140625 37.21875 100.988281 37.667969 100.761719 38.082031 C 100.539062 38.496094 100.242188 38.847656 99.886719 39.140625 C 99.527344 39.441406 99.121094 39.667969 98.671875 39.824219 C 98.222656 39.980469 97.714844 40.0625 97.183594 40.0625 C 96.335938 40.0625 95.582031 39.855469 94.917969 39.453125 C 94.257812 39.035156 93.738281 38.457031 93.351562 37.6875 C 92.972656 36.917969 92.777344 36.007812 92.777344 34.949219 C 92.777344 33.890625 92.972656 32.96875 93.351562 32.210938 C 93.738281 31.441406 94.257812 30.859375 94.917969 30.445312 C 95.582031 30.03125 96.335938 29.832031 97.183594 29.832031 C 97.703125 29.832031 98.191406 29.90625 98.640625 30.0625 C 99.089844 30.21875 99.496094 30.433594 99.855469 30.726562 C 100.210938 31.015625 100.515625 31.371094 100.753906 31.785156 C 100.988281 32.199219 101.148438 32.675781 101.230469 33.214844 Z M 101.199219 33.226562 "/><g clip-rule="nonzero" clip-path="url(#79139ad1e8)"><path style=" stroke:none;fill-rule:nonzero;fill:#909294;fill-opacity:1;" d="M 111.242188 33.226562 L 109.753906 33.226562 C 109.695312 32.90625 109.59375 32.613281 109.4375 32.363281 C 109.285156 32.117188 109.09375 31.910156 108.867188 31.730469 C 108.644531 31.554688 108.390625 31.429688 108.113281 31.339844 C 107.839844 31.253906 107.542969 31.203125 107.226562 31.203125 C 106.664062 31.203125 106.15625 31.347656 105.71875 31.640625 C 105.277344 31.929688 104.921875 32.355469 104.667969 32.90625 C 104.414062 33.464844 104.28125 34.140625 104.28125 34.949219 C 104.28125 35.757812 104.414062 36.441406 104.667969 37.003906 C 104.921875 37.5625 105.277344 37.976562 105.71875 38.269531 C 106.167969 38.558594 106.664062 38.695312 107.226562 38.695312 C 107.53125 38.695312 107.828125 38.652344 108.113281 38.570312 C 108.398438 38.488281 108.644531 38.351562 108.867188 38.183594 C 109.09375 38.019531 109.285156 37.8125 109.449219 37.5625 C 109.601562 37.3125 109.714844 37.035156 109.777344 36.722656 L 111.265625 36.722656 C 111.183594 37.21875 111.03125 37.667969 110.804688 38.082031 C 110.582031 38.496094 110.285156 38.847656 109.929688 39.140625 C 109.570312 39.441406 109.164062 39.667969 108.714844 39.824219 C 108.265625 39.980469 107.757812 40.0625 107.226562 40.0625 C 106.378906 40.0625 105.625 39.855469 104.964844 39.453125 C 104.300781 39.035156 103.78125 38.457031 103.394531 37.6875 C 103.015625 36.917969 102.820312 36.007812 102.820312 34.949219 C 102.820312 33.890625 103.015625 32.96875 103.394531 32.210938 C 103.78125 31.441406 104.300781 30.859375 104.964844 30.445312 C 105.625 30.03125 106.378906 29.832031 107.226562 29.832031 C 107.746094 29.832031 108.234375 29.90625 108.683594 30.0625 C 109.132812 30.21875 109.539062 30.433594 109.898438 30.726562 C 110.253906 31.015625 110.558594 31.371094 110.796875 31.785156 C 111.03125 32.199219 111.191406 32.675781 111.273438 33.214844 Z M 111.242188 33.226562 "/></g><g clip-rule="nonzero" clip-path="url(#282753a6f3)"><path style=" stroke:none;fill-rule:nonzero;fill:#2f2e7b;fill-opacity:1;" d="M 45.898438 30.226562 L 46.925781 30.226562 C 47.285156 30.777344 47.5 31.097656 47.894531 31.753906 C 47.996094 31.628906 48.070312 31.535156 48.128906 31.453125 C 49.375 29.894531 51.554688 29.554688 53.148438 30.695312 C 53.882812 31.222656 54.328125 31.972656 54.554688 32.84375 C 54.960938 34.386719 54.921875 35.933594 54.320312 37.417969 C 53.667969 39.027344 52.445312 39.929688 50.769531 40.21875 C 49.875 40.375 48.988281 40.324219 48.109375 40.09375 C 48.070312 40.085938 48.019531 40.074219 47.9375 40.0625 L 47.9375 40.363281 C 47.9375 41.597656 47.9375 42.84375 47.9375 44.078125 C 47.9375 44.253906 47.90625 44.335938 47.703125 44.347656 C 47.160156 44.378906 46.632812 44.429688 46.070312 44.472656 C 45.9375 39.691406 46.222656 34.957031 45.886719 30.21875 Z M 47.9375 35.664062 C 47.9375 36.679688 47.9375 37.699219 47.9375 38.714844 C 47.9375 38.921875 48.007812 39.035156 48.171875 39.148438 C 49.660156 40.105469 51.484375 39.617188 52.25 38.007812 C 52.972656 36.484375 53.054688 34.875 52.585938 33.246094 C 52.371094 32.488281 51.914062 31.886719 51.167969 31.566406 C 50.140625 31.121094 48.964844 31.390625 48.089844 32.273438 C 48.007812 32.355469 47.945312 32.511719 47.9375 32.625 C 47.925781 33.640625 47.9375 34.65625 47.9375 35.675781 Z M 47.9375 35.664062 "/></g><path style=" stroke:none;fill-rule:nonzero;fill:#2f2e7b;fill-opacity:1;" d="M 75.761719 33.382812 C 75.761719 33.039062 75.730469 32.695312 75.667969 32.355469 C 75.464844 31.246094 74.875 30.433594 73.761719 30.144531 C 72.519531 29.824219 71.355469 30.03125 70.328125 30.828125 C 69.929688 31.128906 69.582031 31.503906 69.195312 31.855469 C 69.175781 31.691406 69.15625 31.535156 69.144531 31.371094 C 69.125 31.203125 69.105469 31.027344 69.09375 30.859375 C 69.058594 30.425781 68.828125 30.207031 68.398438 30.207031 L 67.15625 30.207031 C 67.472656 33.214844 67.277344 36.214844 67.328125 39.191406 L 67.328125 40.09375 L 69.214844 40.09375 L 69.214844 39.773438 C 69.214844 37.511719 69.214844 35.25 69.214844 32.988281 C 69.214844 32.675781 69.296875 32.480469 69.542969 32.292969 C 70.234375 31.785156 70.9375 31.359375 71.824219 31.328125 C 72.765625 31.296875 73.445312 31.742188 73.710938 32.644531 C 73.835938 33.039062 73.863281 33.464844 73.875 33.878906 C 73.894531 35.851562 73.875 37.8125 73.875 39.78125 L 73.875 40.074219 C 73.875 40.074219 75.761719 40.085938 75.761719 40.085938 L 75.761719 37.769531 C 75.761719 36.308594 75.761719 34.835938 75.761719 33.371094 Z M 75.761719 33.382812 "/><path style=" stroke:none;fill-rule:nonzero;fill:#2f2e7b;fill-opacity:1;" d="M 65.035156 32.511719 L 65.035156 32.179688 C 65.035156 32.179688 65.035156 32.09375 65.035156 32.054688 L 65.035156 30.21875 L 63.140625 30.21875 L 63.140625 30.519531 C 63.140625 32.789062 63.140625 35.050781 63.140625 37.324219 C 63.140625 37.625 63.046875 37.800781 62.824219 37.976562 C 62.171875 38.488281 61.488281 38.921875 60.621094 38.941406 C 59.691406 38.972656 59.039062 38.558594 58.765625 37.667969 C 58.644531 37.261719 58.589844 36.816406 58.589844 36.390625 C 58.570312 34.429688 58.589844 32.480469 58.589844 30.519531 L 58.589844 30.21875 L 56.707031 30.21875 L 56.707031 32.53125 C 56.707031 33.964844 56.707031 35.394531 56.707031 36.835938 C 56.707031 37.199219 56.734375 37.5625 56.796875 37.914062 C 57.011719 39.066406 57.601562 39.886719 58.765625 40.175781 C 59.976562 40.476562 61.101562 40.238281 62.089844 39.441406 C 62.457031 39.140625 62.78125 38.789062 63.148438 38.445312 C 63.566406 39.078125 63.832031 39.472656 64.199219 40.09375 L 65.1875 40.09375 C 64.902344 37.5625 65.003906 35.042969 65.015625 32.511719 Z M 65.035156 32.511719 "/><path style=" stroke:none;fill-rule:nonzero;fill:#2f2e7b;fill-opacity:1;" d="M 31.574219 35.03125 L 25.199219 35.03125 C 25.148438 36.867188 26.054688 38.878906 28.277344 39.128906 C 29.257812 39.242188 30.1875 39.078125 31.082031 38.695312 C 31.132812 38.671875 31.183594 38.652344 31.246094 38.632812 C 31.328125 38.878906 31.246094 39.046875 31.050781 39.203125 C 29.605469 40.355469 27.085938 40.800781 25.25 39.523438 C 24.199219 38.789062 23.578125 37.761719 23.3125 36.515625 C 22.96875 34.875 23.160156 33.320312 24.097656 31.910156 C 25.351562 30.011719 27.984375 29.417969 29.828125 30.632812 C 30.734375 31.222656 31.214844 32.125 31.398438 33.183594 C 31.5 33.785156 31.5625 34.355469 31.5625 35.042969 Z M 29.6875 34.179688 C 29.675781 33.289062 29.605469 32.4375 29.175781 31.679688 C 28.574219 30.589844 27.269531 30.382812 26.363281 31.222656 C 25.832031 31.710938 25.546875 32.34375 25.382812 33.019531 C 25.269531 33.484375 25.199219 33.816406 25.199219 34.460938 C 26.761719 34.367188 28.167969 34.273438 29.6875 34.179688 Z M 29.6875 34.179688 "/><path style=" stroke:none;fill-rule:nonzero;fill:#2f2e7b;fill-opacity:1;" d="M 37.292969 38.246094 C 37.84375 38.570312 38.351562 38.910156 38.902344 39.191406 C 39.65625 39.574219 40.464844 39.710938 41.300781 39.523438 C 41.839844 39.398438 42.308594 39.171875 42.5625 38.640625 C 42.859375 38.03125 42.6875 37.3125 42.085938 36.910156 C 41.636719 36.609375 41.136719 36.359375 40.636719 36.132812 C 39.941406 35.808594 39.210938 35.570312 38.578125 35.113281 C 37.691406 34.492188 37.210938 33.652344 37.34375 32.542969 C 37.476562 31.441406 38.136719 30.746094 39.105469 30.320312 C 40.148438 29.875 41.21875 29.949219 42.289062 30.195312 C 42.664062 30.28125 43.023438 30.433594 43.390625 30.570312 C 43.449219 30.601562 43.523438 30.632812 43.523438 30.734375 C 43.53125 31.140625 43.523438 31.554688 43.523438 32.003906 C 43.277344 31.816406 43.0625 31.640625 42.839844 31.484375 C 42.125 30.976562 41.351562 30.644531 40.453125 30.707031 C 39.628906 30.765625 38.996094 31.308594 38.933594 32.054688 C 38.863281 32.78125 39.238281 33.289062 39.839844 33.601562 C 40.574219 33.972656 41.328125 34.292969 42.085938 34.636719 C 42.664062 34.90625 43.214844 35.207031 43.632812 35.707031 C 44.519531 36.773438 44.386719 38.371094 43.347656 39.304688 C 42.554688 40.03125 41.59375 40.28125 40.554688 40.292969 C 39.496094 40.292969 38.476562 40.074219 37.496094 39.660156 C 37.351562 39.597656 37.28125 39.523438 37.292969 39.359375 C 37.300781 38.984375 37.292969 38.609375 37.292969 38.246094 Z M 37.292969 38.246094 "/><path style=" stroke:none;fill-rule:nonzero;fill:#2f2e7b;fill-opacity:1;" d="M 35.152344 40.09375 L 33.296875 40.09375 L 33.296875 25.765625 C 33.90625 25.671875 34.519531 25.570312 35.152344 25.476562 L 35.152344 40.105469 Z M 35.152344 40.09375 "/><g clip-rule="nonzero" clip-path="url(#74a7c944f4)"><path style=" stroke:none;fill-rule:nonzero;fill:#2f2e7b;fill-opacity:1;" d="M 16.410156 27.09375 L 16.503906 26.980469 C 16.972656 26.441406 17.574219 25.933594 18.296875 25.476562 L 17.378906 25.476562 C 16.523438 25.902344 15.6875 26.535156 14.890625 27.34375 C 12.871094 29.398438 11.8125 31.722656 11.464844 32.488281 C 11.375 32.695312 11.128906 33.183594 10.90625 33.652344 C 10.730469 34.015625 10.546875 34.367188 10.4375 34.617188 L 10.363281 34.773438 L 10.292969 34.617188 C 10.058594 34.085938 9.550781 32.914062 9.355469 32.511719 C 8 29.648438 6.132812 27.292969 3.808594 25.496094 L 0.761719 25.496094 C 3.167969 27.355469 4.960938 29.386719 6.367188 31.867188 C 7.691406 34.191406 8.925781 37.148438 9.835938 40.199219 L 10.292969 40.199219 C 10.648438 38.601562 11.433594 35.582031 12.78125 32.875 C 14.648438 29.117188 15.226562 28.453125 16.402344 27.105469 Z M 16.410156 27.09375 "/></g><path style=" stroke:none;fill-rule:nonzero;fill:#2f2e7b;fill-opacity:1;" d="M 24.773438 27.09375 L 24.863281 26.980469 C 25.332031 26.441406 25.933594 25.933594 26.65625 25.476562 L 25.738281 25.476562 C 24.882812 25.902344 24.046875 26.535156 23.253906 27.34375 C 21.234375 29.398438 20.171875 31.722656 19.828125 32.488281 C 19.734375 32.695312 19.488281 33.183594 19.265625 33.652344 C 19.09375 34.015625 18.910156 34.367188 18.796875 34.617188 L 18.726562 34.773438 L 18.652344 34.617188 C 18.417969 34.085938 17.910156 32.914062 17.714844 32.511719 C 16.359375 29.648438 14.492188 27.292969 12.167969 25.496094 L 9.109375 25.496094 C 11.515625 27.355469 13.3125 29.386719 14.71875 31.867188 C 16.042969 34.191406 17.277344 37.148438 18.183594 40.199219 L 18.644531 40.199219 C 19 38.601562 19.785156 35.582031 21.132812 32.875 C 22.996094 29.117188 23.578125 28.453125 24.75 27.105469 Z M 24.773438 27.09375 "/><g clip-rule="nonzero" clip-path="url(#10df799d43)"><path style=" stroke:none;fill-rule:nonzero;fill:#2f2e7b;fill-opacity:1;" d="M 82.96875 26.554688 C 82.96875 27.039062 82.878906 27.507812 82.695312 27.957031 C 82.511719 28.40625 82.253906 28.800781 81.914062 29.144531 C 81.578125 29.488281 81.1875 29.753906 80.75 29.9375 C 80.308594 30.125 79.847656 30.21875 79.371094 30.21875 C 78.894531 30.21875 78.433594 30.125 77.992188 29.9375 C 77.550781 29.753906 77.164062 29.488281 76.824219 29.144531 C 76.488281 28.800781 76.226562 28.40625 76.046875 27.957031 C 75.863281 27.507812 75.773438 27.039062 75.773438 26.554688 C 75.773438 26.070312 75.863281 25.601562 76.046875 25.152344 C 76.226562 24.703125 76.488281 24.308594 76.824219 23.964844 C 77.164062 23.621094 77.550781 23.359375 77.992188 23.171875 C 78.433594 22.984375 78.894531 22.894531 79.371094 22.894531 C 79.847656 22.894531 80.308594 22.984375 80.75 23.171875 C 81.1875 23.359375 81.578125 23.621094 81.914062 23.964844 C 82.253906 24.308594 82.511719 24.703125 82.695312 25.152344 C 82.878906 25.601562 82.96875 26.070312 82.96875 26.554688 Z M 82.96875 26.554688 "/></g><path style=" stroke:none;fill-rule:nonzero;fill:#ffffff;fill-opacity:1;" d="M 80.144531 25.578125 L 80.136719 25.578125 C 79.953125 25.664062 79.769531 25.789062 79.605469 25.953125 C 79.433594 26.121094 79.269531 26.316406 79.125 26.523438 C 79.042969 26.660156 78.964844 26.792969 78.890625 26.9375 C 78.859375 27 78.832031 27.0625 78.808594 27.125 C 78.78125 27.1875 78.757812 27.261719 78.730469 27.324219 C 78.675781 27.207031 78.625 27.117188 78.566406 27.011719 L 78.546875 26.980469 C 78.472656 26.847656 78.402344 26.722656 78.332031 26.617188 C 78.1875 26.398438 78.066406 26.234375 77.945312 26.078125 C 77.839844 25.953125 77.75 25.859375 77.628906 25.734375 C 77.566406 25.683594 77.503906 25.632812 77.453125 25.589844 C 77.453125 25.589844 76.648438 25.589844 76.648438 25.589844 L 76.699219 25.632812 C 77.320312 26.089844 77.839844 26.742188 78.199219 27.507812 C 78.300781 27.71875 78.390625 27.945312 78.484375 28.195312 C 78.484375 28.195312 78.484375 28.226562 78.503906 28.257812 C 78.535156 28.371094 78.574219 28.472656 78.585938 28.503906 C 78.585938 28.503906 78.769531 28.515625 78.769531 28.515625 L 78.769531 28.496094 C 78.769531 28.496094 78.800781 28.402344 78.808594 28.351562 C 78.882812 28.039062 78.992188 27.5625 79.226562 27.023438 C 79.460938 26.492188 79.738281 26.171875 79.953125 25.941406 L 79.972656 25.921875 C 80.074219 25.820312 80.195312 25.726562 80.351562 25.632812 L 80.421875 25.589844 L 80.144531 25.589844 Z M 80.144531 25.578125 "/><path style=" stroke:none;fill-rule:nonzero;fill:#ffffff;fill-opacity:1;" d="M 81.828125 25.578125 L 81.816406 25.578125 C 81.632812 25.664062 81.449219 25.789062 81.289062 25.953125 C 81.113281 26.121094 80.953125 26.316406 80.808594 26.523438 C 80.726562 26.660156 80.644531 26.792969 80.574219 26.9375 C 80.542969 27 80.511719 27.0625 80.492188 27.125 C 80.460938 27.1875 80.441406 27.261719 80.410156 27.324219 C 80.359375 27.207031 80.308594 27.117188 80.246094 27.011719 L 80.226562 26.980469 C 80.15625 26.847656 80.085938 26.722656 80.011719 26.617188 C 79.871094 26.398438 79.75 26.234375 79.625 26.078125 C 79.523438 25.953125 79.433594 25.859375 79.308594 25.734375 C 79.25 25.683594 79.1875 25.632812 79.136719 25.589844 C 79.136719 25.589844 78.332031 25.589844 78.332031 25.589844 L 78.382812 25.632812 C 79.003906 26.089844 79.523438 26.742188 79.878906 27.507812 C 79.984375 27.71875 80.074219 27.945312 80.167969 28.195312 C 80.167969 28.195312 80.167969 28.226562 80.1875 28.257812 C 80.21875 28.371094 80.257812 28.472656 80.269531 28.503906 C 80.269531 28.503906 80.453125 28.515625 80.453125 28.515625 L 80.453125 28.496094 C 80.453125 28.496094 80.480469 28.402344 80.492188 28.351562 C 80.5625 28.039062 80.675781 27.5625 80.910156 27.023438 C 81.144531 26.492188 81.421875 26.171875 81.632812 25.941406 L 81.65625 25.921875 C 81.757812 25.820312 81.878906 25.726562 82.03125 25.632812 L 82.105469 25.589844 L 81.828125 25.589844 Z M 81.828125 25.578125 "/></g></svg>